SplineFontDB: 3.0
FontName: FdSymbolC-Regular
FullName: FdSymbolC-Regular
FamilyName: FdSymbolC
Weight: Regular
Copyright: Copyright (c) 2012, Michael Ummels. This Font Software is licensed under the SIL Open Font License, Version 1.1.
Version: 1.008
ItalicAngle: 0
UnderlinePosition: -100
UnderlineWidth: 50
Ascent: 800
Descent: 200
InvalidEm: 0
LayerCount: 2
Layer: 0 0 "Back" 1
Layer: 1 0 "Fore" 0
UniqueID: 4001314
OS2Version: 0
OS2_WeightWidthSlopeOnly: 0
OS2_UseTypoMetrics: 0
CreationTime: 1431873953
ModificationTime: 1431873953
OS2TypoAscent: 0
OS2TypoAOffset: 1
OS2TypoDescent: 0
OS2TypoDOffset: 1
OS2TypoLinegap: 0
OS2WinAscent: 0
OS2WinAOffset: 1
OS2WinDescent: 0
OS2WinDOffset: 1
HheadAscent: 0
HheadAOffset: 1
HheadDescent: 0
HheadDOffset: 1
OS2Vendor: 'PfEd'
DEI: 91125
Encoding: Custom
UnicodeInterp: none
NameList: AGL For New Fonts
DisplaySize: -48
AntiAlias: 1
FitToEm: 0
BeginPrivate: 2
BlueValues 31 [-10 0 546 556 707 717 754 764]
OtherBlues 11 [-230 -220]
EndPrivate
BeginChars: 256 238

StartChar: arrowright
Encoding: 0 8594 0
Width: 930
Flags: W
HStem: 238 74<90 714>
LayerCount: 2
Back
Fore
SplineSet
855 275 m 1
 675 95 l 1
 623 147 l 1
 714 238 l 1
 90 238 l 1
 90 312 l 1
 714 312 l 1
 623 403 l 1
 675 455 l 1
 855 275 l 1
EndSplineSet
EndChar

StartChar: arrowup
Encoding: 1 8593 1
Width: 562
Flags: W
VStem: 244 74<-100 524>
LayerCount: 2
Back
Fore
SplineSet
281 665 m 1
 461 485 l 1
 409 433 l 1
 318 524 l 1
 318 -100 l 1
 244 -100 l 1
 244 524 l 1
 153 433 l 1
 101 485 l 1
 281 665 l 1
EndSplineSet
EndChar

StartChar: arrowleft
Encoding: 2 8592 2
Width: 930
Flags: W
HStem: 238 74<216 840>
LayerCount: 2
Back
Fore
SplineSet
75 275 m 1
 255 455 l 1
 307 403 l 1
 216 312 l 1
 840 312 l 1
 840 238 l 1
 216 238 l 1
 307 147 l 1
 255 95 l 1
 75 275 l 1
EndSplineSet
EndChar

StartChar: arrowdown
Encoding: 3 8595 3
Width: 562
Flags: W
VStem: 244 74<26 650>
LayerCount: 2
Back
Fore
SplineSet
281 -115 m 1
 101 65 l 1
 153 117 l 1
 244 26 l 1
 244 650 l 1
 318 650 l 1
 318 26 l 1
 409 117 l 1
 461 65 l 1
 281 -115 l 1
EndSplineSet
EndChar

StartChar: uni2197
Encoding: 4 8599 4
Width: 980
Flags: W
HStem: 477 74<511 640>
VStem: 692 74<296 425>
LayerCount: 2
Back
Fore
SplineSet
766 551 m 1
 766 296 l 1
 692 296 l 1
 692 425 l 1
 251 -16 l 1
 199 36 l 1
 640 477 l 1
 511 477 l 1
 511 551 l 1
 766 551 l 1
EndSplineSet
EndChar

StartChar: uni2196
Encoding: 5 8598 5
Width: 980
Flags: W
HStem: 477 74<340 469>
VStem: 214 74<296 425>
LayerCount: 2
Back
Fore
SplineSet
214 551 m 1
 469 551 l 1
 469 477 l 1
 340 477 l 1
 782 36 l 1
 729 -16 l 1
 288 425 l 1
 288 296 l 1
 214 296 l 1
 214 551 l 1
EndSplineSet
EndChar

StartChar: uni2199
Encoding: 6 8601 6
Width: 980
Flags: W
HStem: -1 74<340 469>
VStem: 214 74<125 254>
LayerCount: 2
Back
Fore
SplineSet
214 -1 m 1
 214 254 l 1
 288 254 l 1
 288 125 l 1
 729 566 l 1
 782 514 l 1
 340 73 l 1
 469 73 l 1
 469 -1 l 1
 214 -1 l 1
EndSplineSet
EndChar

StartChar: uni2198
Encoding: 7 8600 7
Width: 980
Flags: W
HStem: -1 74<511 640>
VStem: 692 74<125 254>
LayerCount: 2
Back
Fore
SplineSet
766 -1 m 1
 511 -1 l 1
 511 73 l 1
 640 73 l 1
 199 514 l 1
 251 566 l 1
 692 125 l 1
 692 254 l 1
 766 254 l 1
 766 -1 l 1
EndSplineSet
EndChar

StartChar: arrowdblright
Encoding: 8 8658 8
Width: 1080
Flags: W
HStem: 142 74<90 768> 334 74<90 768>
LayerCount: 2
Back
Fore
SplineSet
1005 275 m 1
 779 49 l 1
 727 101 l 1
 768 142 l 1
 90 142 l 1
 90 216 l 1
 842 216 l 1
 901 275 l 1
 842 334 l 1
 90 334 l 1
 90 408 l 1
 768 408 l 1
 727 449 l 1
 779 501 l 1
 1005 275 l 1
EndSplineSet
EndChar

StartChar: arrowdblup
Encoding: 9 8657 9
Width: 654
Flags: W
VStem: 194 74<-175 503> 386 74<-175 503>
LayerCount: 2
Back
Fore
SplineSet
327 740 m 1
 554 514 l 1
 501 462 l 1
 460 503 l 1
 460 -175 l 1
 386 -175 l 1
 386 577 l 1
 327 636 l 1
 268 577 l 1
 268 -175 l 1
 194 -175 l 1
 194 503 l 1
 153 462 l 1
 101 514 l 1
 327 740 l 1
EndSplineSet
EndChar

StartChar: arrowdblleft
Encoding: 10 8656 10
Width: 1080
Flags: W
HStem: 142 74<312 990> 334 74<312 990>
LayerCount: 2
Back
Fore
SplineSet
75 275 m 1
 301 501 l 1
 353 449 l 1
 312 408 l 1
 990 408 l 1
 990 334 l 1
 238 334 l 1
 179 275 l 1
 238 216 l 1
 990 216 l 1
 990 142 l 1
 312 142 l 1
 353 101 l 1
 301 49 l 1
 75 275 l 1
EndSplineSet
EndChar

StartChar: arrowdbldown
Encoding: 11 8659 11
Width: 654
Flags: W
VStem: 194 74<47 725> 386 74<47 725>
LayerCount: 2
Back
Fore
SplineSet
327 -190 m 1
 101 36 l 1
 153 88 l 1
 194 47 l 1
 194 725 l 1
 268 725 l 1
 268 -27 l 1
 327 -86 l 1
 386 -27 l 1
 386 725 l 1
 460 725 l 1
 460 47 l 1
 501 88 l 1
 554 36 l 1
 327 -190 l 1
EndSplineSet
EndChar

StartChar: uni21D7
Encoding: 12 8663 12
Width: 1152
Flags: W
HStem: -1 21G<196 236> 530 74<585 643 747 831>
VStem: 831 74<284 342 446 530>
LayerCount: 2
Back
Fore
SplineSet
905 604 m 1
 905 284 l 1
 831 284 l 1
 831 342 l 1
 352 -137 l 1
 300 -85 l 1
 831 446 l 1
 831 530 l 1
 747 530 l 1
 216 -1 l 1
 164 51 l 1
 643 530 l 1
 585 530 l 1
 585 604 l 1
 905 604 l 1
EndSplineSet
EndChar

StartChar: uni21D6
Encoding: 13 8662 13
Width: 1152
Flags: W
HStem: -1 21G<916 956> 530 74<321 405 509 567>
VStem: 247 74<284 342 446 530>
LayerCount: 2
Back
Fore
SplineSet
247 604 m 1
 567 604 l 1
 567 530 l 1
 509 530 l 1
 988 51 l 1
 936 -1 l 1
 405 530 l 1
 321 530 l 1
 321 446 l 1
 852 -85 l 1
 800 -137 l 1
 321 342 l 1
 321 284 l 1
 247 284 l 1
 247 604 l 1
EndSplineSet
EndChar

StartChar: uni21D9
Encoding: 14 8665 14
Width: 1152
Flags: W
HStem: -54 74<321 405 509 567> 531 20G<916 956>
VStem: 247 74<20 104 208 266>
LayerCount: 2
Back
Fore
SplineSet
247 -54 m 1
 247 266 l 1
 321 266 l 1
 321 208 l 1
 800 687 l 1
 852 635 l 1
 321 104 l 1
 321 20 l 1
 405 20 l 1
 936 551 l 1
 988 499 l 1
 509 20 l 1
 567 20 l 1
 567 -54 l 1
 247 -54 l 1
EndSplineSet
EndChar

StartChar: uni21D8
Encoding: 15 8664 15
Width: 1152
Flags: W
HStem: -54 74<585 643 747 831> 531 20G<196 236>
VStem: 831 74<20 104 208 266>
LayerCount: 2
Back
Fore
SplineSet
905 -54 m 1
 585 -54 l 1
 585 20 l 1
 643 20 l 1
 164 499 l 1
 216 551 l 1
 747 20 l 1
 831 20 l 1
 831 104 l 1
 300 635 l 1
 352 687 l 1
 831 208 l 1
 831 266 l 1
 905 266 l 1
 905 -54 l 1
EndSplineSet
EndChar

StartChar: arrowboth
Encoding: 16 8596 16
Width: 1080
Flags: W
HStem: 238 74<216 864>
LayerCount: 2
Back
Fore
SplineSet
75 275 m 1
 255 455 l 1
 307 403 l 1
 216 312 l 1
 864 312 l 1
 773 403 l 1
 825 455 l 1
 1005 275 l 1
 825 95 l 1
 773 147 l 1
 864 238 l 1
 216 238 l 1
 307 147 l 1
 255 95 l 1
 75 275 l 1
EndSplineSet
EndChar

StartChar: arrowupdn
Encoding: 17 8597 17
Width: 562
Flags: W
VStem: 244 74<-49 599>
LayerCount: 2
Back
Fore
SplineSet
281 -190 m 1
 101 -10 l 1
 153 42 l 1
 244 -49 l 1
 244 599 l 1
 153 508 l 1
 101 560 l 1
 281 740 l 1
 461 560 l 1
 409 508 l 1
 318 599 l 1
 318 -49 l 1
 409 42 l 1
 461 -10 l 1
 281 -190 l 1
EndSplineSet
EndChar

StartChar: uni2921
Encoding: 18 10529 18
Width: 1087
Flags: W
HStem: -54 74<340 469> 530 74<618 746>
VStem: 214 74<72 201> 798 74<349 478>
LayerCount: 2
Back
Fore
SplineSet
214 -54 m 1
 214 201 l 1
 288 201 l 1
 288 72 l 1
 746 530 l 1
 618 530 l 1
 618 604 l 1
 872 604 l 1
 872 349 l 1
 798 349 l 1
 798 478 l 1
 340 20 l 1
 469 20 l 1
 469 -54 l 1
 214 -54 l 1
EndSplineSet
EndChar

StartChar: uni2922
Encoding: 19 10530 19
Width: 1087
Flags: W
HStem: -54 74<618 746> 530 74<340 469>
VStem: 214 74<349 478> 798 74<72 201>
LayerCount: 2
Back
Fore
SplineSet
872 -54 m 1
 618 -54 l 1
 618 20 l 1
 746 20 l 1
 288 478 l 1
 288 349 l 1
 214 349 l 1
 214 604 l 1
 469 604 l 1
 469 530 l 1
 340 530 l 1
 798 72 l 1
 798 201 l 1
 872 201 l 1
 872 -54 l 1
EndSplineSet
EndChar

StartChar: arrowdblboth
Encoding: 20 8660 20
Width: 1230
Flags: W
HStem: 142 74<312 918> 334 74<312 918>
LayerCount: 2
Back
Fore
SplineSet
992 334 m 1
 238 334 l 1
 179 275 l 1
 238 216 l 1
 992 216 l 1
 1051 275 l 1
 992 334 l 1
75 275 m 1
 301 501 l 1
 353 449 l 1
 312 408 l 1
 918 408 l 1
 877 449 l 1
 929 501 l 1
 1155 275 l 1
 929 49 l 1
 877 101 l 1
 918 142 l 1
 312 142 l 1
 353 101 l 1
 301 49 l 1
 75 275 l 1
EndSplineSet
EndChar

StartChar: uni21D5
Encoding: 21 8661 21
Width: 654
Flags: W
VStem: 194 74<-28 578> 386 74<-28 578>
LayerCount: 2
Back
Fore
SplineSet
268 652 m 1
 268 -102 l 1
 327 -161 l 1
 386 -102 l 1
 386 652 l 1
 327 711 l 1
 268 652 l 1
327 -265 m 1
 101 -39 l 1
 153 13 l 1
 194 -28 l 1
 194 578 l 1
 153 537 l 1
 101 589 l 1
 327 815 l 1
 554 589 l 1
 501 537 l 1
 460 578 l 1
 460 -28 l 1
 501 13 l 1
 554 -39 l 1
 327 -265 l 1
EndSplineSet
EndChar

StartChar: sym030
Encoding: 22 -1 22
Width: 1258
Flags: W
HStem: -107 74<321 405 509 567> 583 74<691 749 853 937>
VStem: 247 74<-33 51 155 213> 937 74<337 395 499 583>
LayerCount: 2
Back
Fore
SplineSet
853 583 m 1
 321 51 l 1
 321 -33 l 1
 405 -33 l 1
 937 499 l 1
 937 583 l 1
 853 583 l 1
247 -107 m 1
 247 213 l 1
 321 213 l 1
 321 155 l 1
 749 583 l 1
 691 583 l 1
 691 657 l 1
 1011 657 l 1
 1011 337 l 1
 937 337 l 1
 937 395 l 1
 509 -33 l 1
 567 -33 l 1
 567 -107 l 1
 247 -107 l 1
EndSplineSet
EndChar

StartChar: sym031
Encoding: 23 -1 23
Width: 1258
Flags: W
HStem: -107 74<691 749 853 937> 583 74<321 405 509 567>
VStem: 247 74<337 395 499 583> 937 74<-33 51 155 213>
LayerCount: 2
Back
Fore
SplineSet
321 499 m 1
 853 -33 l 1
 937 -33 l 1
 937 51 l 1
 405 583 l 1
 321 583 l 1
 321 499 l 1
1011 -107 m 1
 691 -107 l 1
 691 -33 l 1
 749 -33 l 1
 321 395 l 1
 321 337 l 1
 247 337 l 1
 247 657 l 1
 567 657 l 1
 567 583 l 1
 509 583 l 1
 937 155 l 1
 937 213 l 1
 1011 213 l 1
 1011 -107 l 1
EndSplineSet
EndChar

StartChar: uni21A0
Encoding: 24 8608 24
Width: 1118
Flags: W
HStem: 238 74<90 667 771 901>
LayerCount: 2
Back
Fore
SplineSet
1043 275 m 1
 863 95 l 1
 810 147 l 1
 901 238 l 1
 771 238 l 1
 628 95 l 1
 576 147 l 1
 667 238 l 1
 90 238 l 1
 90 312 l 1
 667 312 l 1
 576 403 l 1
 628 455 l 1
 771 312 l 1
 901 312 l 1
 810 403 l 1
 863 455 l 1
 1043 275 l 1
EndSplineSet
EndChar

StartChar: uni219F
Encoding: 25 8607 25
Width: 562
Flags: W
HStem: 739 20G<261 301>
VStem: 244 74<-194 383 488 617>
LayerCount: 2
Back
Fore
SplineSet
281 759 m 1
 461 579 l 1
 409 527 l 1
 318 617 l 1
 318 488 l 1
 461 345 l 1
 409 292 l 1
 318 383 l 1
 318 -194 l 1
 244 -194 l 1
 244 383 l 1
 153 292 l 1
 101 345 l 1
 244 488 l 1
 244 617 l 1
 153 527 l 1
 101 579 l 1
 281 759 l 1
EndSplineSet
EndChar

StartChar: uni219E
Encoding: 26 8606 26
Width: 1118
Flags: W
HStem: 238 74<216 346 451 1028>
LayerCount: 2
Back
Fore
SplineSet
75 275 m 1
 255 455 l 1
 307 403 l 1
 216 312 l 1
 346 312 l 1
 489 455 l 1
 542 403 l 1
 451 312 l 1
 1028 312 l 1
 1028 238 l 1
 451 238 l 1
 542 147 l 1
 489 95 l 1
 346 238 l 1
 216 238 l 1
 307 147 l 1
 255 95 l 1
 75 275 l 1
EndSplineSet
EndChar

StartChar: uni21A1
Encoding: 27 8609 27
Width: 562
Flags: W
VStem: 244 74<-67 62 167 744>
LayerCount: 2
Back
Fore
SplineSet
281 -209 m 1
 101 -29 l 1
 153 23 l 1
 244 -67 l 1
 244 62 l 1
 101 205 l 1
 153 258 l 1
 244 167 l 1
 244 744 l 1
 318 744 l 1
 318 167 l 1
 409 258 l 1
 461 205 l 1
 318 62 l 1
 318 -67 l 1
 409 23 l 1
 461 -29 l 1
 281 -209 l 1
EndSplineSet
EndChar

StartChar: sym033
Encoding: 28 -1 28
Width: 1113
Flags: W
HStem: 378 74<478 608> 543 74<644 773>
VStem: 659 74<197 325> 825 74<363 491>
LayerCount: 2
Back
Fore
SplineSet
899 617 m 1
 899 363 l 1
 825 363 l 1
 825 491 l 1
 733 399 l 1
 733 197 l 1
 659 197 l 1
 659 325 l 1
 251 -83 l 1
 199 -30 l 1
 608 378 l 1
 478 378 l 1
 478 452 l 1
 682 452 l 1
 773 543 l 1
 644 543 l 1
 644 617 l 1
 899 617 l 1
EndSplineSet
EndChar

StartChar: sym032
Encoding: 29 -1 29
Width: 1113
Flags: W
HStem: 378 74<505 635> 543 74<340 469>
VStem: 214 74<363 491> 380 74<197 325>
LayerCount: 2
Back
Fore
SplineSet
214 617 m 1
 469 617 l 1
 469 543 l 1
 340 543 l 1
 431 452 l 1
 635 452 l 1
 635 378 l 1
 505 378 l 1
 914 -30 l 1
 862 -83 l 1
 454 325 l 1
 454 197 l 1
 380 197 l 1
 380 399 l 1
 288 491 l 1
 288 363 l 1
 214 363 l 1
 214 617 l 1
EndSplineSet
EndChar

StartChar: sym035
Encoding: 30 -1 30
Width: 1113
Flags: W
HStem: -67 74<340 469> 98 74<505 635>
VStem: 214 74<59 187> 380 74<225 353>
LayerCount: 2
Back
Fore
SplineSet
214 -67 m 1
 214 187 l 1
 288 187 l 1
 288 59 l 1
 380 151 l 1
 380 353 l 1
 454 353 l 1
 454 225 l 1
 862 633 l 1
 914 580 l 1
 505 172 l 1
 635 172 l 1
 635 98 l 1
 431 98 l 1
 340 7 l 1
 469 7 l 1
 469 -67 l 1
 214 -67 l 1
EndSplineSet
EndChar

StartChar: sym034
Encoding: 31 -1 31
Width: 1113
Flags: W
HStem: -67 74<644 773> 98 74<478 608>
VStem: 659 74<225 353> 825 74<59 187>
LayerCount: 2
Back
Fore
SplineSet
899 -67 m 1
 644 -67 l 1
 644 7 l 1
 773 7 l 1
 682 98 l 1
 478 98 l 1
 478 172 l 1
 608 172 l 1
 199 580 l 1
 251 633 l 1
 659 225 l 1
 659 353 l 1
 733 353 l 1
 733 151 l 1
 825 59 l 1
 825 187 l 1
 899 187 l 1
 899 -67 l 1
EndSplineSet
EndChar

StartChar: uni21A3
Encoding: 32 8611 32
Width: 930
Flags: W
HStem: 238 74<296 714>
LayerCount: 2
Back
Fore
SplineSet
855 275 m 1
 675 95 l 1
 623 147 l 1
 714 238 l 1
 296 238 l 1
 153 95 l 1
 101 147 l 1
 229 275 l 1
 101 403 l 1
 153 455 l 1
 296 312 l 1
 714 312 l 1
 623 403 l 1
 675 455 l 1
 855 275 l 1
EndSplineSet
EndChar

StartChar: sym036
Encoding: 33 -1 33
Width: 562
Flags: W
VStem: 244 74<106 524>
LayerCount: 2
Back
Fore
SplineSet
281 665 m 1
 461 485 l 1
 409 433 l 1
 318 524 l 1
 318 106 l 1
 461 -37 l 1
 409 -89 l 1
 281 39 l 1
 153 -89 l 1
 101 -37 l 1
 244 106 l 1
 244 524 l 1
 153 433 l 1
 101 485 l 1
 281 665 l 1
EndSplineSet
EndChar

StartChar: uni21A2
Encoding: 34 8610 34
Width: 930
Flags: W
HStem: 238 74<216 634>
LayerCount: 2
Back
Fore
SplineSet
75 275 m 1
 255 455 l 1
 307 403 l 1
 216 312 l 1
 634 312 l 1
 777 455 l 1
 829 403 l 1
 701 275 l 1
 829 147 l 1
 777 95 l 1
 634 238 l 1
 216 238 l 1
 307 147 l 1
 255 95 l 1
 75 275 l 1
EndSplineSet
EndChar

StartChar: sym037
Encoding: 35 -1 35
Width: 562
Flags: W
VStem: 244 74<26 444>
LayerCount: 2
Back
Fore
SplineSet
281 -115 m 1
 101 65 l 1
 153 117 l 1
 244 26 l 1
 244 444 l 1
 101 587 l 1
 153 639 l 1
 281 511 l 1
 409 639 l 1
 461 587 l 1
 318 444 l 1
 318 26 l 1
 409 117 l 1
 461 65 l 1
 281 -115 l 1
EndSplineSet
EndChar

StartChar: sym039
Encoding: 36 -1 36
Width: 980
Flags: W
HStem: 108 74<142 323> 477 74<511 640>
VStem: 323 74<-73 108> 692 74<296 425>
LayerCount: 2
Back
Fore
SplineSet
766 551 m 1
 766 296 l 1
 692 296 l 1
 692 425 l 1
 397 130 l 1
 397 -73 l 1
 323 -73 l 1
 323 108 l 1
 142 108 l 1
 142 182 l 1
 345 182 l 1
 640 477 l 1
 511 477 l 1
 511 551 l 1
 766 551 l 1
EndSplineSet
EndChar

StartChar: sym038
Encoding: 37 -1 37
Width: 980
Flags: W
HStem: 108 74<657 838> 477 74<340 469>
VStem: 214 74<296 425> 583 74<-73 108>
LayerCount: 2
Back
Fore
SplineSet
214 551 m 1
 469 551 l 1
 469 477 l 1
 340 477 l 1
 636 182 l 1
 838 182 l 1
 838 108 l 1
 657 108 l 1
 657 -73 l 1
 583 -73 l 1
 583 130 l 1
 288 425 l 1
 288 296 l 1
 214 296 l 1
 214 551 l 1
EndSplineSet
EndChar

StartChar: sym03B
Encoding: 38 -1 38
Width: 980
Flags: W
HStem: -1 74<340 469> 368 74<657 838>
VStem: 214 74<125 254> 583 74<442 623>
LayerCount: 2
Back
Fore
SplineSet
214 -1 m 1
 214 254 l 1
 288 254 l 1
 288 125 l 1
 583 420 l 1
 583 623 l 1
 657 623 l 1
 657 442 l 1
 838 442 l 1
 838 368 l 1
 636 368 l 1
 340 73 l 1
 469 73 l 1
 469 -1 l 1
 214 -1 l 1
EndSplineSet
EndChar

StartChar: sym03A
Encoding: 39 -1 39
Width: 980
Flags: W
HStem: -1 74<511 640> 368 74<142 323>
VStem: 323 74<442 623> 692 74<125 254>
LayerCount: 2
Back
Fore
SplineSet
766 -1 m 1
 511 -1 l 1
 511 73 l 1
 640 73 l 1
 345 368 l 1
 142 368 l 1
 142 442 l 1
 323 442 l 1
 323 623 l 1
 397 623 l 1
 397 420 l 1
 692 125 l 1
 692 254 l 1
 766 254 l 1
 766 -1 l 1
EndSplineSet
EndChar

StartChar: uni21A6
Encoding: 40 8614 40
Width: 930
Flags: W
HStem: 238 74<164 714>
VStem: 90 74<84 238 312 466>
LayerCount: 2
Back
Fore
SplineSet
855 275 m 1
 675 95 l 1
 623 147 l 1
 714 238 l 1
 164 238 l 1
 164 84 l 1
 90 84 l 1
 90 466 l 1
 164 466 l 1
 164 312 l 1
 714 312 l 1
 623 403 l 1
 675 455 l 1
 855 275 l 1
EndSplineSet
EndChar

StartChar: uni21A5
Encoding: 41 8613 41
Width: 562
Flags: W
HStem: -100 74<90 244 318 472>
VStem: 244 74<-26 524>
LayerCount: 2
Back
Fore
SplineSet
281 665 m 1
 461 485 l 1
 409 433 l 1
 318 524 l 1
 318 -26 l 1
 472 -26 l 1
 472 -100 l 1
 90 -100 l 1
 90 -26 l 1
 244 -26 l 1
 244 524 l 1
 153 433 l 1
 101 485 l 1
 281 665 l 1
EndSplineSet
EndChar

StartChar: uni21A4
Encoding: 42 8612 42
Width: 930
Flags: W
HStem: 238 74<216 766>
VStem: 766 74<84 238 312 466>
LayerCount: 2
Back
Fore
SplineSet
75 275 m 1
 255 455 l 1
 307 403 l 1
 216 312 l 1
 766 312 l 1
 766 466 l 1
 840 466 l 1
 840 84 l 1
 766 84 l 1
 766 238 l 1
 216 238 l 1
 307 147 l 1
 255 95 l 1
 75 275 l 1
EndSplineSet
EndChar

StartChar: uni21A7
Encoding: 43 8615 43
Width: 562
Flags: W
HStem: 576 74<90 244 318 472>
VStem: 244 74<26 576>
LayerCount: 2
Back
Fore
SplineSet
281 -115 m 1
 101 65 l 1
 153 117 l 1
 244 26 l 1
 244 576 l 1
 90 576 l 1
 90 650 l 1
 472 650 l 1
 472 576 l 1
 318 576 l 1
 318 26 l 1
 409 117 l 1
 461 65 l 1
 281 -115 l 1
EndSplineSet
EndChar

StartChar: uni2907
Encoding: 44 10503 44
Width: 1080
Flags: W
HStem: 142 74<164 768> 334 74<164 768>
VStem: 90 74<38 142 216 334 408 512>
LayerCount: 2
Back
Fore
SplineSet
164 334 m 1
 164 216 l 1
 842 216 l 1
 901 275 l 1
 842 334 l 1
 164 334 l 1
1005 275 m 1
 779 49 l 1
 727 101 l 1
 768 142 l 1
 164 142 l 1
 164 38 l 1
 90 38 l 1
 90 512 l 1
 164 512 l 1
 164 408 l 1
 768 408 l 1
 727 449 l 1
 779 501 l 1
 1005 275 l 1
EndSplineSet
EndChar

StartChar: sym03C
Encoding: 45 -1 45
Width: 654
Flags: W
HStem: -175 74<90 194 268 386 460 564>
VStem: 194 74<-101 503> 386 74<-101 503>
LayerCount: 2
Back
Fore
SplineSet
268 -101 m 1
 386 -101 l 1
 386 577 l 1
 327 636 l 1
 268 577 l 1
 268 -101 l 1
327 740 m 1
 554 514 l 1
 501 462 l 1
 460 503 l 1
 460 -101 l 1
 564 -101 l 1
 564 -175 l 1
 90 -175 l 1
 90 -101 l 1
 194 -101 l 1
 194 503 l 1
 153 462 l 1
 101 514 l 1
 327 740 l 1
EndSplineSet
EndChar

StartChar: uni2906
Encoding: 46 10502 46
Width: 1080
Flags: W
HStem: 142 74<312 916> 334 74<312 916>
VStem: 916 74<38 142 216 334 408 512>
LayerCount: 2
Back
Fore
SplineSet
916 216 m 1
 916 334 l 1
 238 334 l 1
 179 275 l 1
 238 216 l 1
 916 216 l 1
75 275 m 1
 301 501 l 1
 353 449 l 1
 312 408 l 1
 916 408 l 1
 916 512 l 1
 990 512 l 1
 990 38 l 1
 916 38 l 1
 916 142 l 1
 312 142 l 1
 353 101 l 1
 301 49 l 1
 75 275 l 1
EndSplineSet
EndChar

StartChar: sym03D
Encoding: 47 -1 47
Width: 654
Flags: W
HStem: 651 74<90 194 268 386 460 564>
VStem: 194 74<47 651> 386 74<47 651>
LayerCount: 2
Back
Fore
SplineSet
386 651 m 1
 268 651 l 1
 268 -27 l 1
 327 -86 l 1
 386 -27 l 1
 386 651 l 1
327 -190 m 1
 101 36 l 1
 153 88 l 1
 194 47 l 1
 194 651 l 1
 90 651 l 1
 90 725 l 1
 564 725 l 1
 564 651 l 1
 460 651 l 1
 460 47 l 1
 501 88 l 1
 554 36 l 1
 327 -190 l 1
EndSplineSet
EndChar

StartChar: uni21AA
Encoding: 48 8618 48
Width: 930
Flags: W
HStem: 238 74<170.085 714> 392 74<170.085 241>
VStem: 90 74<317.239 386.761>
LayerCount: 2
Back
Fore
SplineSet
241 392 m 1
 204 392 l 2
 182 392 164 374 164 352 c 0
 164 330 182 312 204 312 c 2
 714 312 l 1
 623 403 l 1
 675 455 l 1
 855 275 l 1
 675 95 l 1
 623 147 l 1
 714 238 l 1
 204 238 l 2
 141 238 90 289 90 352 c 0
 90 415 141 466 204 466 c 2
 241 466 l 1
 241 392 l 1
EndSplineSet
EndChar

StartChar: sym03E
Encoding: 49 -1 49
Width: 562
Flags: W
HStem: -100 74<169.239 238.761>
VStem: 90 74<-19.9148 51> 244 74<-19.9148 524>
LayerCount: 2
Back
Fore
SplineSet
164 51 m 1
 164 14 l 2
 164 -8 182 -26 204 -26 c 0
 226 -26 244 -8 244 14 c 2
 244 524 l 1
 153 433 l 1
 101 485 l 1
 281 665 l 1
 461 485 l 1
 409 433 l 1
 318 524 l 1
 318 14 l 2
 318 -49 267 -100 204 -100 c 0
 141 -100 90 -49 90 14 c 2
 90 51 l 1
 164 51 l 1
EndSplineSet
EndChar

StartChar: uni21A9.alt
Encoding: 50 -1 50
Width: 930
Flags: W
HStem: 84 74<689 759.915> 238 74<216 759.915>
VStem: 766 74<163.239 232.761>
LayerCount: 2
Back
Fore
SplineSet
689 158 m 1
 726 158 l 2
 748 158 766 176 766 198 c 0
 766 220 748 238 726 238 c 2
 216 238 l 1
 307 147 l 1
 255 95 l 1
 75 275 l 1
 255 455 l 1
 307 403 l 1
 216 312 l 1
 726 312 l 2
 789 312 840 261 840 198 c 0
 840 135 789 84 726 84 c 2
 689 84 l 1
 689 158 l 1
EndSplineSet
EndChar

StartChar: sym03F.alt
Encoding: 51 -1 51
Width: 562
Flags: W
HStem: 576 74<323.239 392.761>
VStem: 244 74<26 569.915> 398 74<499 569.915>
LayerCount: 2
Back
Fore
SplineSet
398 499 m 1
 398 536 l 2
 398 558 380 576 358 576 c 0
 336 576 318 558 318 536 c 2
 318 26 l 1
 409 117 l 1
 461 65 l 1
 281 -115 l 1
 101 65 l 1
 153 117 l 1
 244 26 l 1
 244 536 l 2
 244 599 295 650 358 650 c 0
 421 650 472 599 472 536 c 2
 472 499 l 1
 398 499 l 1
EndSplineSet
EndChar

StartChar: uni2924.alt
Encoding: 52 -1 52
Width: 980
Flags: W
HStem: 31 74<216.203 287.254> 477 74<511 640>
VStem: 137 74<110.815 182.613> 692 74<296 425>
LayerCount: 2
Back
Fore
SplineSet
211 145 m 0
 211 124 231 105 252 105 c 0
 262 105 272 109 280 117 c 2
 640 477 l 1
 511 477 l 1
 511 551 l 1
 766 551 l 1
 766 296 l 1
 692 296 l 1
 692 425 l 1
 332 64 l 2
 310 42 280 31 251 31 c 0
 222 31 193 42 171 64 c 0
 149 86 137 116 137 145 c 0
 137 174 149 203 171 225 c 2
 197 252 l 1
 249 199 l 1
 223 173 l 2
 215 165 211 155 211 145 c 0
EndSplineSet
EndChar

StartChar: uni2923
Encoding: 53 10531 53
Width: 980
Flags: W
HStem: -78 74<582.387 655.328> 477 74<340 469>
VStem: 214 74<296 425> 660 74<0.805374 71.7618>
LayerCount: 2
Back
Fore
SplineSet
620 -4 m 0
 641 -4 660 14 660 36 c 0
 660 46 657 56 649 64 c 2
 288 425 l 1
 288 296 l 1
 214 296 l 1
 214 551 l 1
 469 551 l 1
 469 477 l 1
 340 477 l 1
 701 117 l 2
 723 95 734 65 734 36 c 0
 734 7 723 -23 701 -45 c 0
 679 -67 649 -78 620 -78 c 0
 591 -78 562 -67 540 -45 c 2
 514 -18 l 1
 566 34 l 1
 592 8 l 2
 600 0 610 -4 620 -4 c 0
EndSplineSet
EndChar

StartChar: uni2926.alt
Encoding: 54 -1 54
Width: 980
Flags: W
HStem: -1 74<340 469> 445 74<693.442 764.434>
VStem: 214 74<125 254> 769 74<366.981 440.421>
LayerCount: 2
Back
Fore
SplineSet
769 405 m 0
 769 427 751 445 730 445 c 0
 720 445 709 441 701 433 c 2
 340 73 l 1
 469 73 l 1
 469 -1 l 1
 214 -1 l 1
 214 254 l 1
 288 254 l 1
 288 125 l 1
 649 486 l 2
 671 508 700 519 729 519 c 0
 758 519 788 508 810 486 c 0
 832 464 843 434 843 405 c 0
 843 376 832 347 810 325 c 2
 784 298 l 1
 731 351 l 1
 758 377 l 2
 766 385 769 395 769 405 c 0
EndSplineSet
EndChar

StartChar: uni2925
Encoding: 55 10533 55
Width: 980
Flags: W
HStem: -1 74<511 640> 554 74<325.087 398.004>
VStem: 246 74<478.238 549.094> 692 74<125 254>
LayerCount: 2
Back
Fore
SplineSet
360 554 m 0
 339 554 320 535 320 514 c 0
 320 504 324 494 332 486 c 2
 692 125 l 1
 692 254 l 1
 766 254 l 1
 766 -1 l 1
 511 -1 l 1
 511 73 l 1
 640 73 l 1
 280 433 l 2
 258 455 246 485 246 514 c 0
 246 543 258 573 280 595 c 0
 302 617 331 628 360 628 c 0
 389 628 419 617 441 595 c 2
 467 568 l 1
 415 516 l 1
 388 542 l 2
 380 550 370 554 360 554 c 0
EndSplineSet
EndChar

StartChar: uni21AA.alt
Encoding: 56 -1 56
Width: 930
Flags: W
HStem: 84 74<170.085 241> 238 74<170.085 714>
VStem: 90 74<163.239 232.761>
LayerCount: 2
Back
Fore
SplineSet
241 84 m 1
 204 84 l 2
 141 84 90 135 90 198 c 0
 90 261 141 312 204 312 c 2
 714 312 l 1
 623 403 l 1
 675 455 l 1
 855 275 l 1
 675 95 l 1
 623 147 l 1
 714 238 l 1
 204 238 l 2
 182 238 164 220 164 198 c 0
 164 176 182 158 204 158 c 2
 241 158 l 1
 241 84 l 1
EndSplineSet
EndChar

StartChar: sym03E.alt
Encoding: 57 -1 57
Width: 562
Flags: W
HStem: -100 74<323.239 392.761>
VStem: 244 74<-19.9148 524> 398 74<-19.9148 51>
LayerCount: 2
Back
Fore
SplineSet
472 51 m 1
 472 14 l 2
 472 -49 421 -100 358 -100 c 0
 295 -100 244 -49 244 14 c 2
 244 524 l 1
 153 433 l 1
 101 485 l 1
 281 665 l 1
 461 485 l 1
 409 433 l 1
 318 524 l 1
 318 14 l 2
 318 -8 336 -26 358 -26 c 0
 380 -26 398 -8 398 14 c 2
 398 51 l 1
 472 51 l 1
EndSplineSet
EndChar

StartChar: uni21A9
Encoding: 58 8617 58
Width: 930
Flags: W
HStem: 238 74<216 759.915> 392 74<689 759.915>
VStem: 766 74<317.239 386.761>
LayerCount: 2
Back
Fore
SplineSet
689 466 m 1
 726 466 l 2
 789 466 840 415 840 352 c 0
 840 289 789 238 726 238 c 2
 216 238 l 1
 307 147 l 1
 255 95 l 1
 75 275 l 1
 255 455 l 1
 307 403 l 1
 216 312 l 1
 726 312 l 2
 748 312 766 330 766 352 c 0
 766 374 748 392 726 392 c 2
 689 392 l 1
 689 466 l 1
EndSplineSet
EndChar

StartChar: sym03F
Encoding: 59 -1 59
Width: 562
Flags: W
HStem: 576 74<169.239 238.761>
VStem: 90 74<499 569.915> 244 74<26 569.915>
LayerCount: 2
Back
Fore
SplineSet
90 499 m 1
 90 536 l 2
 90 599 141 650 204 650 c 0
 267 650 318 599 318 536 c 2
 318 26 l 1
 409 117 l 1
 461 65 l 1
 281 -115 l 1
 101 65 l 1
 153 117 l 1
 244 26 l 1
 244 536 l 2
 244 558 226 576 204 576 c 0
 182 576 164 558 164 536 c 2
 164 499 l 1
 90 499 l 1
EndSplineSet
EndChar

StartChar: uni2924
Encoding: 60 10532 60
Width: 980
Flags: W
HStem: -78 74<325.087 398.004> 477 74<511 640>
VStem: 246 74<0.906082 71.7618> 692 74<296 425>
LayerCount: 2
Back
Fore
SplineSet
320 36 m 0
 320 15 339 -4 360 -4 c 0
 370 -4 380 0 388 8 c 2
 415 34 l 1
 467 -18 l 1
 441 -45 l 2
 419 -67 389 -78 360 -78 c 0
 331 -78 302 -67 280 -45 c 0
 258 -23 246 7 246 36 c 0
 246 65 258 95 280 117 c 2
 640 477 l 1
 511 477 l 1
 511 551 l 1
 766 551 l 1
 766 296 l 1
 692 296 l 1
 692 425 l 1
 332 64 l 2
 324 56 320 46 320 36 c 0
EndSplineSet
EndChar

StartChar: uni2923.alt
Encoding: 61 -1 61
Width: 980
Flags: W
HStem: 31 74<693.442 764.434> 477 74<340 469>
VStem: 214 74<296 425> 769 74<109.579 183.019>
LayerCount: 2
Back
Fore
SplineSet
730 105 m 0
 751 105 769 123 769 145 c 0
 769 155 766 165 758 173 c 2
 731 199 l 1
 784 252 l 1
 810 225 l 2
 832 203 843 174 843 145 c 0
 843 116 832 86 810 64 c 0
 788 42 758 31 729 31 c 0
 700 31 671 42 649 64 c 2
 288 425 l 1
 288 296 l 1
 214 296 l 1
 214 551 l 1
 469 551 l 1
 469 477 l 1
 340 477 l 1
 701 117 l 2
 709 109 720 105 730 105 c 0
EndSplineSet
EndChar

StartChar: uni2926
Encoding: 62 10534 62
Width: 980
Flags: W
HStem: -1 74<340 469> 554 74<582.387 655.328>
VStem: 214 74<125 254> 660 74<478.238 549.195>
LayerCount: 2
Back
Fore
SplineSet
660 514 m 0
 660 536 641 554 620 554 c 0
 610 554 600 550 592 542 c 2
 566 516 l 1
 514 568 l 1
 540 595 l 2
 562 617 591 628 620 628 c 0
 649 628 679 617 701 595 c 0
 723 573 734 543 734 514 c 0
 734 485 723 455 701 433 c 2
 340 73 l 1
 469 73 l 1
 469 -1 l 1
 214 -1 l 1
 214 254 l 1
 288 254 l 1
 288 125 l 1
 649 486 l 2
 657 494 660 504 660 514 c 0
EndSplineSet
EndChar

StartChar: uni2925.alt
Encoding: 63 -1 63
Width: 980
Flags: W
HStem: -1 74<511 640> 445 74<216.203 287.254>
VStem: 137 74<367.387 439.185> 692 74<125 254>
LayerCount: 2
Back
Fore
SplineSet
252 445 m 0
 231 445 211 426 211 405 c 0
 211 395 215 385 223 377 c 2
 249 351 l 1
 197 298 l 1
 171 325 l 2
 149 347 137 376 137 405 c 0
 137 434 149 464 171 486 c 0
 193 508 222 519 251 519 c 0
 280 519 310 508 332 486 c 2
 692 125 l 1
 692 254 l 1
 766 254 l 1
 766 -1 l 1
 511 -1 l 1
 511 73 l 1
 640 73 l 1
 280 433 l 2
 272 441 262 445 252 445 c 0
EndSplineSet
EndChar

StartChar: uni21C0
Encoding: 64 8640 64
Width: 930
Flags: W
HStem: 238 74<90 714>
LayerCount: 2
Back
Fore
SplineSet
855 275 m 1
 845 238 l 1
 90 238 l 1
 90 312 l 1
 714 312 l 1
 604 421 l 1
 657 474 l 1
 855 275 l 1
EndSplineSet
EndChar

StartChar: uni21BF
Encoding: 65 8639 65
Width: 562
Flags: W
VStem: 244 74<-100 524>
LayerCount: 2
Back
Fore
SplineSet
281 665 m 1
 318 655 l 1
 318 -100 l 1
 244 -100 l 1
 244 524 l 1
 135 414 l 1
 82 467 l 1
 281 665 l 1
EndSplineSet
EndChar

StartChar: uni21BD
Encoding: 66 8637 66
Width: 930
Flags: W
HStem: 238 74<216 840>
LayerCount: 2
Back
Fore
SplineSet
75 275 m 1
 85 312 l 1
 840 312 l 1
 840 238 l 1
 216 238 l 1
 326 129 l 1
 273 76 l 1
 75 275 l 1
EndSplineSet
EndChar

StartChar: uni21C2
Encoding: 67 8642 67
Width: 562
Flags: W
VStem: 244 74<26 650>
LayerCount: 2
Back
Fore
SplineSet
281 -115 m 1
 244 -105 l 1
 244 650 l 1
 318 650 l 1
 318 26 l 1
 427 136 l 1
 480 83 l 1
 281 -115 l 1
EndSplineSet
EndChar

StartChar: sym041
Encoding: 68 -1 68
Width: 980
Flags: W
HStem: 477 74<485 640 744 745>
LayerCount: 2
Back
Fore
SplineSet
766 551 m 1
 785 518 l 1
 745 477 l 1
 744 477 l 1
 251 -16 l 1
 199 36 l 1
 640 477 l 1
 485 477 l 1
 485 551 l 1
 766 551 l 1
EndSplineSet
EndChar

StartChar: sym040
Encoding: 69 -1 69
Width: 980
Flags: W
VStem: 214 74<270 425>
LayerCount: 2
Back
Fore
SplineSet
214 551 m 1
 247 570 l 1
 425 392 604 214 782 36 c 1
 729 -16 l 1
 288 425 l 1
 288 270 l 1
 214 270 l 1
 214 551 l 1
EndSplineSet
EndChar

StartChar: sym043
Encoding: 70 -1 70
Width: 980
Flags: W
HStem: -1 74<340 495>
LayerCount: 2
Back
Fore
SplineSet
214 -1 m 1
 195 32 l 1
 729 566 l 1
 782 514 l 1
 340 73 l 1
 495 73 l 1
 495 -1 l 1
 214 -1 l 1
EndSplineSet
EndChar

StartChar: sym042
Encoding: 71 -1 71
Width: 980
Flags: W
VStem: 692 74<125 280>
LayerCount: 2
Back
Fore
SplineSet
766 -1 m 1
 733 -20 l 1
 199 514 l 1
 251 566 l 1
 692 125 l 1
 692 280 l 1
 766 280 l 1
 766 -1 l 1
EndSplineSet
EndChar

StartChar: uni21C1
Encoding: 72 8641 72
Width: 930
Flags: W
HStem: 238 74<90 714>
LayerCount: 2
Back
Fore
SplineSet
855 275 m 1
 657 76 l 1
 604 129 l 1
 714 238 l 1
 90 238 l 1
 90 312 l 1
 845 312 l 1
 855 275 l 1
EndSplineSet
EndChar

StartChar: uni21BE
Encoding: 73 8638 73
Width: 562
Flags: W
VStem: 244 74<-100 524>
LayerCount: 2
Back
Fore
SplineSet
281 665 m 1
 480 467 l 1
 427 414 l 1
 318 524 l 1
 318 -100 l 1
 244 -100 l 1
 244 655 l 1
 281 665 l 1
EndSplineSet
EndChar

StartChar: uni21BC
Encoding: 74 8636 74
Width: 930
Flags: W
HStem: 238 74<216 840>
LayerCount: 2
Back
Fore
SplineSet
75 275 m 1
 273 474 l 1
 326 421 l 1
 216 312 l 1
 840 312 l 1
 840 238 l 1
 85 238 l 1
 75 275 l 1
EndSplineSet
EndChar

StartChar: uni21C3
Encoding: 75 8643 75
Width: 562
Flags: W
VStem: 244 74<26 650>
LayerCount: 2
Back
Fore
SplineSet
281 -115 m 1
 82 83 l 1
 135 136 l 1
 244 26 l 1
 244 650 l 1
 318 650 l 1
 318 -105 l 1
 281 -115 l 1
EndSplineSet
EndChar

StartChar: sym045
Encoding: 76 -1 76
Width: 980
Flags: W
VStem: 692 74<270 425>
LayerCount: 2
Back
Fore
SplineSet
766 551 m 1
 766 270 l 1
 692 270 l 1
 692 425 l 1
 251 -16 l 1
 199 36 l 1
 733 570 l 1
 766 551 l 1
EndSplineSet
EndChar

StartChar: sym044
Encoding: 77 -1 77
Width: 980
Flags: W
HStem: 477 74<340 495>
LayerCount: 2
Back
Fore
SplineSet
214 551 m 1
 495 551 l 1
 495 477 l 1
 340 477 l 1
 782 36 l 1
 729 -16 l 1
 195 518 l 1
 214 551 l 1
EndSplineSet
EndChar

StartChar: sym047
Encoding: 78 -1 78
Width: 980
Flags: W
VStem: 214 74<125 280>
LayerCount: 2
Back
Fore
SplineSet
214 -1 m 1
 214 280 l 1
 288 280 l 1
 288 125 l 1
 729 566 l 1
 782 514 l 1
 604 336 425 158 247 -20 c 1
 214 -1 l 1
EndSplineSet
EndChar

StartChar: sym046
Encoding: 79 -1 79
Width: 980
Flags: W
HStem: -1 74<485 640 744 745>
LayerCount: 2
Back
Fore
SplineSet
766 -1 m 1
 485 -1 l 1
 485 73 l 1
 640 73 l 1
 199 514 l 1
 251 566 l 1
 744 73 l 1
 745 73 l 1
 785 32 l 1
 766 -1 l 1
EndSplineSet
EndChar

StartChar: uni294B
Encoding: 80 10571 80
Width: 930
Flags: W
HStem: 238 74<216 714>
LayerCount: 2
Back
Fore
SplineSet
75 275 m 1
 85 312 l 1
 714 312 l 1
 604 421 l 1
 657 474 l 1
 855 275 l 1
 845 238 l 1
 216 238 l 1
 326 129 l 1
 273 76 l 1
 75 275 l 1
EndSplineSet
EndChar

StartChar: uni294D
Encoding: 81 10573 81
Width: 562
Flags: W
VStem: 244 74<26 524>
LayerCount: 2
Back
Fore
SplineSet
281 -115 m 1
 244 -105 l 1
 244 524 l 1
 135 414 l 1
 82 467 l 1
 281 665 l 1
 318 655 l 1
 318 26 l 1
 427 136 l 1
 480 83 l 1
 281 -115 l 1
EndSplineSet
EndChar

StartChar: sym049
Encoding: 82 -1 82
Width: 980
Flags: W
HStem: -1 74<340 495> 477 74<485 640 744 745>
LayerCount: 2
Back
Fore
SplineSet
214 -1 m 1
 195 32 l 1
 640 477 l 1
 485 477 l 1
 485 551 l 1
 766 551 l 1
 785 518 l 1
 745 477 l 1
 744 477 l 1
 340 73 l 1
 495 73 l 1
 495 -1 l 1
 214 -1 l 1
EndSplineSet
EndChar

StartChar: sym048
Encoding: 83 -1 83
Width: 980
Flags: W
VStem: 214 74<270 425> 692 74<125 280>
LayerCount: 2
Back
Fore
SplineSet
766 -1 m 1
 733 -20 l 1
 288 425 l 1
 288 270 l 1
 214 270 l 1
 214 551 l 1
 247 570 l 1
 692 125 l 1
 692 280 l 1
 766 280 l 1
 766 -1 l 1
EndSplineSet
EndChar

StartChar: uni294A
Encoding: 84 10570 84
Width: 930
Flags: W
HStem: 238 74<216 714>
LayerCount: 2
Back
Fore
SplineSet
75 275 m 1
 273 474 l 1
 326 421 l 1
 216 312 l 1
 845 312 l 1
 855 275 l 1
 657 76 l 1
 604 129 l 1
 714 238 l 1
 85 238 l 1
 75 275 l 1
EndSplineSet
EndChar

StartChar: uni294C
Encoding: 85 10572 85
Width: 562
Flags: W
VStem: 244 74<26 524>
LayerCount: 2
Back
Fore
SplineSet
281 -115 m 1
 82 83 l 1
 135 136 l 1
 244 26 l 1
 244 655 l 1
 281 665 l 1
 480 467 l 1
 427 414 l 1
 318 524 l 1
 318 -105 l 1
 281 -115 l 1
EndSplineSet
EndChar

StartChar: sym04B
Encoding: 86 -1 86
Width: 980
Flags: W
VStem: 214 74<125 280> 692 74<270 425>
LayerCount: 2
Back
Fore
SplineSet
214 -1 m 1
 214 280 l 1
 288 280 l 1
 288 125 l 1
 733 570 l 1
 766 551 l 1
 766 270 l 1
 692 270 l 1
 692 425 l 1
 247 -20 l 1
 214 -1 l 1
EndSplineSet
EndChar

StartChar: sym04A
Encoding: 87 -1 87
Width: 980
Flags: W
HStem: -1 74<485 640 744 745> 477 74<340 495>
LayerCount: 2
Back
Fore
SplineSet
766 -1 m 1
 485 -1 l 1
 485 73 l 1
 640 73 l 1
 195 518 l 1
 214 551 l 1
 495 551 l 1
 495 477 l 1
 340 477 l 1
 744 73 l 1
 745 73 l 1
 785 32 l 1
 766 -1 l 1
EndSplineSet
EndChar

StartChar: uni21CC
Encoding: 88 8652 88
Width: 930
Flags: W
HStem: 142 74<216 840> 334 74<90 714>
LayerCount: 2
Back
Fore
SplineSet
855 371 m 1
 845 334 l 1
 90 334 l 1
 90 408 l 1
 714 408 l 1
 604 518 l 1
 657 570 l 1
 855 371 l 1
75 179 m 1
 85 216 l 1
 840 216 l 1
 840 142 l 1
 216 142 l 1
 326 32 l 1
 273 -20 l 1
 75 179 l 1
EndSplineSet
EndChar

StartChar: uni296E
Encoding: 89 10606 89
Width: 755
Flags: W
VStem: 244 74<-100 524> 436 74<26 650>
LayerCount: 2
Back
Fore
SplineSet
281 665 m 1
 318 655 l 1
 318 -100 l 1
 244 -100 l 1
 244 524 l 1
 135 414 l 1
 82 467 l 1
 281 665 l 1
473 -115 m 1
 436 -105 l 1
 436 650 l 1
 510 650 l 1
 510 26 l 1
 620 136 l 1
 672 83 l 1
 473 -115 l 1
EndSplineSet
EndChar

StartChar: sym04D
Encoding: 90 -1 90
Width: 1117
Flags: W
HStem: -69 74<477 631> 545 74<485 640 744 745>
LayerCount: 2
Back
Fore
SplineSet
766 619 m 1
 785 586 l 1
 745 545 l 1
 744 545 l 1
 251 52 l 1
 199 104 l 1
 640 545 l 1
 485 545 l 1
 485 619 l 1
 766 619 l 1
350 -69 m 1
 331 -36 l 1
 865 498 l 1
 918 446 l 1
 477 5 l 1
 631 5 l 1
 631 -69 l 1
 350 -69 l 1
EndSplineSet
EndChar

StartChar: sym04C
Encoding: 91 -1 91
Width: 1117
Flags: W
VStem: 214 74<202 357> 828 74<194 348>
LayerCount: 2
Back
Fore
SplineSet
214 483 m 1
 247 502 l 1
 425 324 604 146 782 -32 c 1
 729 -84 l 1
 288 357 l 1
 288 202 l 1
 214 202 l 1
 214 483 l 1
902 67 m 1
 869 48 l 1
 335 582 l 1
 387 634 l 1
 828 194 l 1
 828 348 l 1
 902 348 l 1
 902 67 l 1
EndSplineSet
EndChar

StartChar: uni21CB
Encoding: 92 8651 92
Width: 930
Flags: W
HStem: 142 74<90 714> 334 74<216 840>
LayerCount: 2
Back
Fore
SplineSet
855 179 m 1
 657 -20 l 1
 604 32 l 1
 714 142 l 1
 90 142 l 1
 90 216 l 1
 845 216 l 1
 855 179 l 1
75 371 m 1
 273 570 l 1
 326 518 l 1
 216 408 l 1
 840 408 l 1
 840 334 l 1
 85 334 l 1
 75 371 l 1
EndSplineSet
EndChar

StartChar: uni296F
Encoding: 93 10607 93
Width: 755
Flags: W
VStem: 244 74<26 650> 436 74<-100 524>
LayerCount: 2
Back
Fore
SplineSet
473 665 m 1
 672 467 l 1
 620 414 l 1
 510 524 l 1
 510 -100 l 1
 436 -100 l 1
 436 655 l 1
 473 665 l 1
281 -115 m 1
 82 83 l 1
 135 136 l 1
 244 26 l 1
 244 650 l 1
 318 650 l 1
 318 -105 l 1
 281 -115 l 1
EndSplineSet
EndChar

StartChar: sym04F
Encoding: 94 -1 94
Width: 1117
Flags: W
VStem: 214 74<193 348> 828 74<202 356>
LayerCount: 2
Back
Fore
SplineSet
902 483 m 1
 902 202 l 1
 828 202 l 1
 828 356 l 1
 387 -84 l 1
 335 -32 l 1
 869 502 l 1
 902 483 l 1
214 67 m 1
 214 348 l 1
 288 348 l 1
 288 193 l 1
 729 634 l 1
 782 582 l 1
 604 404 425 226 247 48 c 1
 214 67 l 1
EndSplineSet
EndChar

StartChar: sym04E
Encoding: 95 -1 95
Width: 1117
Flags: W
HStem: -69 74<485 640 744 745> 545 74<477 631>
LayerCount: 2
Back
Fore
SplineSet
350 619 m 1
 631 619 l 1
 631 545 l 1
 477 545 l 1
 918 104 l 1
 865 52 l 1
 331 586 l 1
 350 619 l 1
766 -69 m 1
 485 -69 l 1
 485 5 l 1
 640 5 l 1
 199 446 l 1
 251 498 l 1
 744 5 l 1
 745 5 l 1
 785 -36 l 1
 766 -69 l 1
EndSplineSet
EndChar

StartChar: uni21E2
Encoding: 96 8674 96
Width: 930
Flags: W
HStem: 238 74<90 330 499 714>
LayerCount: 2
Back
Fore
SplineSet
90 238 m 1
 90 312 l 1
 330 312 l 1
 330 238 l 1
 90 238 l 1
855 275 m 1
 675 95 l 1
 623 147 l 1
 714 238 l 1
 499 238 l 1
 499 312 l 1
 714 312 l 1
 623 403 l 1
 675 455 l 1
 855 275 l 1
EndSplineSet
EndChar

StartChar: uni21E1
Encoding: 97 8673 97
Width: 562
Flags: W
VStem: 244 74<-100 140 309 524>
LayerCount: 2
Back
Fore
SplineSet
318 -100 m 1
 244 -100 l 1
 244 140 l 1
 318 140 l 1
 318 -100 l 1
281 665 m 1
 461 485 l 1
 409 433 l 1
 318 524 l 1
 318 309 l 1
 244 309 l 1
 244 524 l 1
 153 433 l 1
 101 485 l 1
 281 665 l 1
EndSplineSet
EndChar

StartChar: uni21E0
Encoding: 98 8672 98
Width: 930
Flags: W
HStem: 238 74<216 431 600 840>
LayerCount: 2
Back
Fore
SplineSet
840 312 m 1
 840 238 l 1
 600 238 l 1
 600 312 l 1
 840 312 l 1
75 275 m 1
 255 455 l 1
 307 403 l 1
 216 312 l 1
 431 312 l 1
 431 238 l 1
 216 238 l 1
 307 147 l 1
 255 95 l 1
 75 275 l 1
EndSplineSet
EndChar

StartChar: uni21E3
Encoding: 99 8675 99
Width: 562
Flags: W
VStem: 244 74<26 241 410 650>
LayerCount: 2
Back
Fore
SplineSet
244 650 m 1
 318 650 l 1
 318 410 l 1
 244 410 l 1
 244 650 l 1
281 -115 m 1
 101 65 l 1
 153 117 l 1
 244 26 l 1
 244 241 l 1
 318 241 l 1
 318 26 l 1
 409 117 l 1
 461 65 l 1
 281 -115 l 1
EndSplineSet
EndChar

StartChar: sym051
Encoding: 100 -1 100
Width: 980
Flags: W
HStem: 477 74<511 640>
VStem: 692 74<296 425>
LayerCount: 2
Back
Fore
SplineSet
251 -16 m 1
 199 36 l 1
 368 206 l 1
 421 153 l 1
 251 -16 l 1
766 551 m 1
 766 296 l 1
 692 296 l 1
 692 425 l 1
 540 273 l 1
 488 325 l 1
 640 477 l 1
 511 477 l 1
 511 551 l 1
 766 551 l 1
EndSplineSet
EndChar

StartChar: sym050
Encoding: 101 -1 101
Width: 980
Flags: W
HStem: 477 74<340 469>
VStem: 214 74<296 425>
LayerCount: 2
Back
Fore
SplineSet
782 36 m 1
 729 -16 l 1
 560 153 l 1
 612 206 l 1
 782 36 l 1
214 551 m 1
 469 551 l 1
 469 477 l 1
 340 477 l 1
 492 325 l 1
 440 273 l 1
 288 425 l 1
 288 296 l 1
 214 296 l 1
 214 551 l 1
EndSplineSet
EndChar

StartChar: sym053
Encoding: 102 -1 102
Width: 980
Flags: W
HStem: -1 74<340 469>
VStem: 214 74<125 254>
LayerCount: 2
Back
Fore
SplineSet
729 566 m 1
 782 514 l 1
 612 344 l 1
 560 397 l 1
 729 566 l 1
214 -1 m 1
 214 254 l 1
 288 254 l 1
 288 125 l 1
 440 277 l 1
 492 225 l 1
 340 73 l 1
 469 73 l 1
 469 -1 l 1
 214 -1 l 1
EndSplineSet
EndChar

StartChar: sym052
Encoding: 103 -1 103
Width: 980
Flags: W
HStem: -1 74<511 640>
VStem: 692 74<125 254>
LayerCount: 2
Back
Fore
SplineSet
199 514 m 1
 251 566 l 1
 421 397 l 1
 368 344 l 1
 199 514 l 1
766 -1 m 1
 511 -1 l 1
 511 73 l 1
 640 73 l 1
 488 225 l 1
 540 277 l 1
 692 125 l 1
 692 254 l 1
 766 254 l 1
 766 -1 l 1
EndSplineSet
EndChar

StartChar: uni22B8
Encoding: 104 8888 104
Width: 930
Flags: W
HStem: 115 74<624.867 735.273> 238 74<90 530.926> 361 74<624.867 735.273>
VStem: 766 74<219.727 330.273>
CounterMasks: 1 e0
LayerCount: 2
Back
Fore
SplineSet
680 435 m 0
 767 435 840 362 840 275 c 0
 840 188 767 115 680 115 c 0
 604 115 540 171 524 238 c 1
 90 238 l 1
 90 312 l 1
 524 312 l 1
 540 379 604 435 680 435 c 0
680 189 m 0
 727 189 766 228 766 275 c 0
 766 322 727 361 680 361 c 0
 633 361 594 322 594 275 c 0
 594 228 633 189 680 189 c 0
EndSplineSet
EndChar

StartChar: uni2AEF
Encoding: 105 10991 105
Width: 562
Flags: W
HStem: 576 74<225.727 336.273>
VStem: 121 74<434.867 545.273> 244 74<-100 340.926> 367 74<434.867 545.273>
CounterMasks: 1 70
LayerCount: 2
Back
Fore
SplineSet
281 650 m 0
 368 650 441 577 441 490 c 0
 441 414 385 350 318 334 c 1
 318 -100 l 1
 244 -100 l 1
 244 334 l 1
 177 350 121 414 121 490 c 0
 121 577 194 650 281 650 c 0
281 404 m 0
 328 404 367 443 367 490 c 0
 367 537 328 576 281 576 c 0
 234 576 195 537 195 490 c 0
 195 443 234 404 281 404 c 0
EndSplineSet
EndChar

StartChar: uni27DC
Encoding: 106 10204 106
Width: 930
Flags: W
HStem: 115 74<194.727 305.133> 238 74<399.074 840> 361 74<194.727 305.133>
VStem: 90 74<219.727 330.273>
CounterMasks: 1 e0
LayerCount: 2
Back
Fore
SplineSet
250 435 m 0
 326 435 390 379 406 312 c 1
 840 312 l 1
 840 238 l 1
 406 238 l 1
 390 171 326 115 250 115 c 0
 163 115 90 188 90 275 c 0
 90 362 163 435 250 435 c 0
250 189 m 0
 297 189 336 228 336 275 c 0
 336 322 297 361 250 361 c 0
 203 361 164 322 164 275 c 0
 164 228 203 189 250 189 c 0
EndSplineSet
EndChar

StartChar: uni2AF0
Encoding: 107 10992 107
Width: 562
Flags: W
HStem: -100 74<225.727 336.273>
VStem: 121 74<4.72742 115.133> 244 74<209.074 650> 367 74<4.72742 115.133>
CounterMasks: 1 70
LayerCount: 2
Back
Fore
SplineSet
318 216 m 1
 385 200 441 136 441 60 c 0
 441 -27 368 -100 281 -100 c 0
 194 -100 121 -27 121 60 c 0
 121 136 177 200 244 216 c 1
 244 650 l 1
 318 650 l 1
 318 216 l 1
281 -26 m 0
 328 -26 367 13 367 60 c 0
 367 107 328 146 281 146 c 0
 234 146 195 107 195 60 c 0
 195 13 234 -26 281 -26 c 0
EndSplineSet
EndChar

StartChar: sym054
Encoding: 108 -1 108
Width: 930
Flags: W
HStem: 115 320<601.461 759.034> 238 74<90 530.926>
LayerCount: 2
Back
Fore
SplineSet
680 435 m 0x80
 767 435 840 362 840 275 c 0
 840 188 767 115 680 115 c 0x80
 604 115 540 171 524 238 c 1
 90 238 l 1
 90 312 l 1
 524 312 l 1x40
 540 379 604 435 680 435 c 0x80
EndSplineSet
EndChar

StartChar: sym056
Encoding: 109 -1 109
Width: 562
Flags: W
VStem: 121 320<411.461 569.034> 244 74<-100 340.926>
LayerCount: 2
Back
Fore
SplineSet
281 650 m 0x80
 368 650 441 577 441 490 c 0x80
 441 414 385 350 318 334 c 1
 318 -100 l 1
 244 -100 l 1
 244 334 l 1x40
 177 350 121 414 121 490 c 0
 121 577 194 650 281 650 c 0x80
EndSplineSet
EndChar

StartChar: sym055
Encoding: 110 -1 110
Width: 930
Flags: W
HStem: 115 320<170.966 328.539> 238 74<399.074 840>
LayerCount: 2
Back
Fore
SplineSet
250 435 m 0x80
 326 435 390 379 406 312 c 1
 840 312 l 1
 840 238 l 1
 406 238 l 1x40
 390 171 326 115 250 115 c 0
 163 115 90 188 90 275 c 0
 90 362 163 435 250 435 c 0x80
EndSplineSet
EndChar

StartChar: sym057
Encoding: 111 -1 111
Width: 562
Flags: W
VStem: 121 320<-19.0343 138.539> 244 74<209.074 650>
LayerCount: 2
Back
Fore
SplineSet
318 216 m 1x40
 385 200 441 136 441 60 c 0
 441 -27 368 -100 281 -100 c 0
 194 -100 121 -27 121 60 c 0x80
 121 136 177 200 244 216 c 1
 244 650 l 1
 318 650 l 1
 318 216 l 1x40
EndSplineSet
EndChar

StartChar: uni29DF
Encoding: 112 10719 112
Width: 1230
Flags: W
HStem: 115 74<194.727 305.133 924.867 1035.27> 238 74<399.074 830.926> 361 74<194.727 305.133 924.867 1035.27>
VStem: 90 74<219.727 330.273> 1066 74<219.727 330.273>
CounterMasks: 1 e0
LayerCount: 2
Back
Fore
SplineSet
980 435 m 0
 1067 435 1140 362 1140 275 c 0
 1140 188 1067 115 980 115 c 0
 904 115 840 171 824 238 c 1
 406 238 l 1
 390 171 326 115 250 115 c 0
 163 115 90 188 90 275 c 0
 90 362 163 435 250 435 c 0
 326 435 390 379 406 312 c 1
 824 312 l 1
 840 379 904 435 980 435 c 0
980 189 m 0
 1027 189 1066 228 1066 275 c 0
 1066 322 1027 361 980 361 c 0
 933 361 894 322 894 275 c 0
 894 228 933 189 980 189 c 0
250 189 m 0
 297 189 336 228 336 275 c 0
 336 322 297 361 250 361 c 0
 203 361 164 322 164 275 c 0
 164 228 203 189 250 189 c 0
EndSplineSet
EndChar

StartChar: sym058
Encoding: 113 -1 113
Width: 1230
Flags: W
HStem: 115 320<170.966 328.539 901.461 1059.03> 238 74<399.074 830.926>
LayerCount: 2
Back
Fore
SplineSet
980 435 m 0x80
 1067 435 1140 362 1140 275 c 0
 1140 188 1067 115 980 115 c 0x80
 904 115 840 171 824 238 c 1
 406 238 l 1x40
 390 171 326 115 250 115 c 0
 163 115 90 188 90 275 c 0
 90 362 163 435 250 435 c 0x80
 326 435 390 379 406 312 c 1
 824 312 l 1x40
 840 379 904 435 980 435 c 0x80
EndSplineSet
EndChar

StartChar: uni22B7
Encoding: 114 8887 114
Width: 1230
Flags: W
HStem: 115 320<170.966 328.539> 115 74<924.867 1035.27> 238 74<399.074 830.926> 361 74<924.867 1035.27>
VStem: 1066 74<219.727 330.273>
LayerCount: 2
Back
Fore
SplineSet
980 435 m 0x38
 1067 435 1140 362 1140 275 c 0
 1140 188 1067 115 980 115 c 0
 904 115 840 171 824 238 c 1
 406 238 l 1x78
 390 171 326 115 250 115 c 0
 163 115 90 188 90 275 c 0
 90 362 163 435 250 435 c 0x88
 326 435 390 379 406 312 c 1
 824 312 l 1
 840 379 904 435 980 435 c 0x38
980 189 m 0
 1027 189 1066 228 1066 275 c 0
 1066 322 1027 361 980 361 c 0
 933 361 894 322 894 275 c 0
 894 228 933 189 980 189 c 0
EndSplineSet
EndChar

StartChar: uni22B6
Encoding: 115 8886 115
Width: 1230
Flags: W
HStem: 115 320<901.461 1059.03> 115 74<194.727 305.133> 238 74<399.074 830.926> 361 74<194.727 305.133>
VStem: 90 74<219.727 330.273>
LayerCount: 2
Back
Fore
SplineSet
980 435 m 0x88
 1067 435 1140 362 1140 275 c 0
 1140 188 1067 115 980 115 c 0x88
 904 115 840 171 824 238 c 1
 406 238 l 1
 390 171 326 115 250 115 c 0
 163 115 90 188 90 275 c 0
 90 362 163 435 250 435 c 0
 326 435 390 379 406 312 c 1
 824 312 l 1x78
 840 379 904 435 980 435 c 0x88
250 189 m 0x58
 297 189 336 228 336 275 c 0
 336 322 297 361 250 361 c 0
 203 361 164 322 164 275 c 0
 164 228 203 189 250 189 c 0x58
EndSplineSet
EndChar

StartChar: sym05A
Encoding: 116 -1 116
Width: 930
Flags: W
HStem: 35 74<90 362.32> 238 74<90 425 496.634 840> 441 74<90 362.32>
VStem: 425 75<178.419 238 312 371.581>
CounterMasks: 1 e0
LayerCount: 2
Back
Fore
SplineSet
90 109 m 1
 301 109 l 2
 368 109 413 168 425 238 c 1
 90 238 l 1
 90 312 l 1
 425 312 l 1
 413 382 368 441 301 441 c 2
 90 441 l 1
 90 515 l 1
 301 515 l 2
 408 515 486 422 500 312 c 1
 840 312 l 1
 840 238 l 1
 500 238 l 1
 486 128 408 35 301 35 c 2
 90 35 l 1
 90 109 l 1
EndSplineSet
EndChar

StartChar: uni22D4
Encoding: 117 8916 117
Width: 659
Flags: W
HStem: 235 75<233.419 293 367 426.489>
VStem: 90 74<-100 172.32> 293 74<-100 235 306.634 650> 495 74<-100 172.32>
LayerCount: 2
Back
Fore
SplineSet
495 -100 m 1
 495 111 l 2
 495 178 437 223 367 235 c 1
 367 -100 l 1
 293 -100 l 1
 293 235 l 1
 222 223 164 178 164 111 c 2
 164 -100 l 1
 90 -100 l 1
 90 111 l 2
 90 218 183 296 293 310 c 1
 293 650 l 1
 367 650 l 1
 367 310 l 1
 477 296 569 218 569 111 c 2
 569 -100 l 1
 495 -100 l 1
EndSplineSet
EndChar

StartChar: sym05B
Encoding: 118 -1 118
Width: 930
Flags: W
HStem: 35 74<567.68 840> 238 74<90 433.366 505 840> 441 74<567.68 840>
VStem: 430 75<178.419 238 312 371.581>
CounterMasks: 1 e0
LayerCount: 2
Back
Fore
SplineSet
840 441 m 1
 629 441 l 2
 562 441 517 382 505 312 c 1
 840 312 l 1
 840 238 l 1
 505 238 l 1
 517 168 562 109 629 109 c 2
 840 109 l 1
 840 35 l 1
 629 35 l 2
 522 35 444 128 430 238 c 1
 90 238 l 1
 90 312 l 1
 430 312 l 1
 444 422 522 515 629 515 c 2
 840 515 l 1
 840 441 l 1
EndSplineSet
EndChar

StartChar: sym059
Encoding: 119 -1 119
Width: 659
Flags: W
HStem: 240 75<233.419 293 367 426.489>
VStem: 90 74<377.68 650> 293 74<-100 243.366 315 650> 495 74<377.68 650>
LayerCount: 2
Back
Fore
SplineSet
164 650 m 1
 164 439 l 2
 164 372 222 327 293 315 c 1
 293 650 l 1
 367 650 l 1
 367 315 l 1
 437 327 495 372 495 439 c 2
 495 650 l 1
 569 650 l 1
 569 439 l 2
 569 332 477 254 367 240 c 1
 367 -100 l 1
 293 -100 l 1
 293 240 l 1
 183 254 90 332 90 439 c 2
 90 650 l 1
 164 650 l 1
EndSplineSet
EndChar

StartChar: uni21C9
Encoding: 120 8649 120
Width: 930
Flags: W
HStem: 84 74<90 714> 392 74<90 714>
LayerCount: 2
Back
Fore
SplineSet
855 121 m 1
 675 -59 l 1
 623 -7 l 1
 714 84 l 1
 90 84 l 1
 90 158 l 1
 714 158 l 1
 623 249 l 1
 649 275 l 1
 623 301 l 1
 714 392 l 1
 90 392 l 1
 90 466 l 1
 714 466 l 1
 623 557 l 1
 675 609 l 1
 855 429 l 1
 701 275 l 1
 855 121 l 1
EndSplineSet
EndChar

StartChar: uni21C8
Encoding: 121 8648 121
Width: 870
Flags: W
VStem: 244 74<-100 524> 552 74<-100 524>
LayerCount: 2
Back
Fore
SplineSet
589 665 m 1
 769 485 l 1
 717 433 l 1
 626 524 l 1
 626 -100 l 1
 552 -100 l 1
 552 524 l 1
 461 433 l 1
 435 459 l 1
 409 433 l 1
 318 524 l 1
 318 -100 l 1
 244 -100 l 1
 244 524 l 1
 153 433 l 1
 101 485 l 1
 281 665 l 1
 435 511 l 1
 589 665 l 1
EndSplineSet
EndChar

StartChar: uni21C7
Encoding: 122 8647 122
Width: 930
Flags: W
HStem: 84 74<216 840> 392 74<216 840>
LayerCount: 2
Back
Fore
SplineSet
75 429 m 1
 255 609 l 1
 307 557 l 1
 216 466 l 1
 840 466 l 1
 840 392 l 1
 216 392 l 1
 307 301 l 1
 281 275 l 1
 307 249 l 1
 216 158 l 1
 840 158 l 1
 840 84 l 1
 216 84 l 1
 307 -7 l 1
 255 -59 l 1
 75 121 l 1
 229 275 l 1
 75 429 l 1
EndSplineSet
EndChar

StartChar: uni21CA
Encoding: 123 8650 123
Width: 870
Flags: W
VStem: 244 74<26 650> 552 74<26 650>
LayerCount: 2
Back
Fore
SplineSet
281 -115 m 1
 101 65 l 1
 153 117 l 1
 244 26 l 1
 244 650 l 1
 318 650 l 1
 318 26 l 1
 409 117 l 1
 435 91 l 1
 461 117 l 1
 552 26 l 1
 552 650 l 1
 626 650 l 1
 626 26 l 1
 717 117 l 1
 769 65 l 1
 589 -115 l 1
 435 39 l 1
 281 -115 l 1
EndSplineSet
EndChar

StartChar: sym05D
Encoding: 124 -1 124
Width: 1198
Flags: W
HStem: 368 74<766 858> 586 74<511 640>
VStem: 692 74<442 534> 910 74<187 316>
LayerCount: 2
Back
Fore
SplineSet
984 442 m 1
 984 187 l 1
 910 187 l 1
 910 316 l 1
 469 -125 l 1
 417 -73 l 1
 858 368 l 1
 729 368 l 1
 729 405 l 1
 692 405 l 1
 692 534 l 1
 251 93 l 1
 199 145 l 1
 640 586 l 1
 511 586 l 1
 511 660 l 1
 766 660 l 1
 766 442 l 1
 984 442 l 1
EndSplineSet
EndChar

StartChar: sym05C
Encoding: 125 -1 125
Width: 1198
Flags: W
HStem: 368 74<340 432> 586 74<558 687>
VStem: 214 74<187 316> 432 74<442 534>
LayerCount: 2
Back
Fore
SplineSet
432 660 m 1
 687 660 l 1
 687 586 l 1
 558 586 l 1
 999 145 l 1
 947 93 l 1
 506 534 l 1
 506 405 l 1
 469 405 l 1
 469 368 l 1
 340 368 l 1
 782 -73 l 1
 729 -125 l 1
 288 316 l 1
 288 187 l 1
 214 187 l 1
 214 442 l 1
 432 442 l 1
 432 660 l 1
EndSplineSet
EndChar

StartChar: sym05F
Encoding: 126 -1 126
Width: 1198
Flags: W
HStem: -110 74<558 687> 108 74<340 432>
VStem: 214 74<234 363> 432 74<16 108>
LayerCount: 2
Back
Fore
SplineSet
214 108 m 1
 214 363 l 1
 288 363 l 1
 288 234 l 1
 729 675 l 1
 782 623 l 1
 340 182 l 1
 469 182 l 1
 469 145 l 1
 506 145 l 1
 506 16 l 1
 947 457 l 1
 999 405 l 1
 558 -36 l 1
 687 -36 l 1
 687 -110 l 1
 432 -110 l 1
 432 108 l 1
 214 108 l 1
EndSplineSet
EndChar

StartChar: sym05E
Encoding: 127 -1 127
Width: 1198
Flags: W
HStem: -110 74<511 640> 108 74<766 858>
VStem: 692 74<16 108> 910 74<234 363>
LayerCount: 2
Back
Fore
SplineSet
766 -110 m 1
 511 -110 l 1
 511 -36 l 1
 640 -36 l 1
 199 405 l 1
 251 457 l 1
 692 16 l 1
 692 145 l 1
 729 145 l 1
 729 182 l 1
 858 182 l 1
 417 623 l 1
 469 675 l 1
 910 234 l 1
 910 363 l 1
 984 363 l 1
 984 108 l 1
 766 108 l 1
 766 -110 l 1
EndSplineSet
EndChar

StartChar: uni21C4
Encoding: 128 8644 128
Width: 930
Flags: W
HStem: 84 74<216 840> 392 74<90 714>
LayerCount: 2
Back
Fore
SplineSet
855 429 m 1
 675 249 l 1
 623 301 l 1
 714 392 l 1
 90 392 l 1
 90 466 l 1
 714 466 l 1
 623 557 l 1
 675 609 l 1
 855 429 l 1
75 121 m 1
 255 301 l 1
 307 249 l 1
 216 158 l 1
 840 158 l 1
 840 84 l 1
 216 84 l 1
 307 -7 l 1
 255 -59 l 1
 75 121 l 1
EndSplineSet
EndChar

StartChar: uni21C5
Encoding: 129 8645 129
Width: 870
Flags: W
VStem: 244 74<-100 524> 552 74<26 650>
LayerCount: 2
Back
Fore
SplineSet
281 665 m 1
 461 485 l 1
 409 433 l 1
 318 524 l 1
 318 -100 l 1
 244 -100 l 1
 244 524 l 1
 153 433 l 1
 101 485 l 1
 281 665 l 1
589 -115 m 1
 409 65 l 1
 461 117 l 1
 552 26 l 1
 552 650 l 1
 626 650 l 1
 626 26 l 1
 717 117 l 1
 769 65 l 1
 589 -115 l 1
EndSplineSet
EndChar

StartChar: sym061
Encoding: 130 -1 130
Width: 1198
Flags: W
HStem: -110 74<558 687> 586 74<511 640>
VStem: 432 74<16 145> 692 74<405 534>
LayerCount: 2
Back
Fore
SplineSet
766 660 m 1
 766 405 l 1
 692 405 l 1
 692 534 l 1
 251 93 l 1
 199 145 l 1
 640 586 l 1
 511 586 l 1
 511 660 l 1
 766 660 l 1
432 -110 m 1
 432 145 l 1
 506 145 l 1
 506 16 l 1
 947 457 l 1
 999 405 l 1
 558 -36 l 1
 687 -36 l 1
 687 -110 l 1
 432 -110 l 1
EndSplineSet
EndChar

StartChar: sym060
Encoding: 131 -1 131
Width: 1198
Flags: W
HStem: 108 74<729 858> 368 74<340 469>
VStem: 214 74<187 316> 910 74<234 363>
LayerCount: 2
Back
Fore
SplineSet
214 442 m 1
 469 442 l 1
 469 368 l 1
 340 368 l 1
 782 -73 l 1
 729 -125 l 1
 288 316 l 1
 288 187 l 1
 214 187 l 1
 214 442 l 1
984 108 m 1
 729 108 l 1
 729 182 l 1
 858 182 l 1
 417 623 l 1
 469 675 l 1
 910 234 l 1
 910 363 l 1
 984 363 l 1
 984 108 l 1
EndSplineSet
EndChar

StartChar: uni21C6
Encoding: 132 8646 132
Width: 930
Flags: W
HStem: 84 74<90 714> 392 74<216 840>
LayerCount: 2
Back
Fore
SplineSet
855 121 m 1
 675 -59 l 1
 623 -7 l 1
 714 84 l 1
 90 84 l 1
 90 158 l 1
 714 158 l 1
 623 249 l 1
 675 301 l 1
 855 121 l 1
75 429 m 1
 255 609 l 1
 307 557 l 1
 216 466 l 1
 840 466 l 1
 840 392 l 1
 216 392 l 1
 307 301 l 1
 255 249 l 1
 75 429 l 1
EndSplineSet
EndChar

StartChar: uni21F5
Encoding: 133 8693 133
Width: 870
Flags: W
VStem: 244 74<26 650> 552 74<-100 524>
LayerCount: 2
Back
Fore
SplineSet
589 665 m 1
 769 485 l 1
 717 433 l 1
 626 524 l 1
 626 -100 l 1
 552 -100 l 1
 552 524 l 1
 461 433 l 1
 409 485 l 1
 589 665 l 1
281 -115 m 1
 101 65 l 1
 153 117 l 1
 244 26 l 1
 244 650 l 1
 318 650 l 1
 318 26 l 1
 409 117 l 1
 461 65 l 1
 281 -115 l 1
EndSplineSet
EndChar

StartChar: sym063
Encoding: 134 -1 134
Width: 1198
Flags: W
HStem: 108 74<340 469> 368 74<729 858>
VStem: 214 74<234 363> 910 74<187 316>
LayerCount: 2
Back
Fore
SplineSet
984 442 m 1
 984 187 l 1
 910 187 l 1
 910 316 l 1
 469 -125 l 1
 417 -73 l 1
 858 368 l 1
 729 368 l 1
 729 442 l 1
 984 442 l 1
214 108 m 1
 214 363 l 1
 288 363 l 1
 288 234 l 1
 729 675 l 1
 782 623 l 1
 340 182 l 1
 469 182 l 1
 469 108 l 1
 214 108 l 1
EndSplineSet
EndChar

StartChar: sym062
Encoding: 135 -1 135
Width: 1198
Flags: W
HStem: -110 74<511 640> 586 74<558 687>
VStem: 432 74<405 534> 692 74<16 145>
LayerCount: 2
Back
Fore
SplineSet
432 660 m 1
 687 660 l 1
 687 586 l 1
 558 586 l 1
 999 145 l 1
 947 93 l 1
 506 534 l 1
 506 405 l 1
 432 405 l 1
 432 660 l 1
766 -110 m 1
 511 -110 l 1
 511 -36 l 1
 640 -36 l 1
 199 405 l 1
 251 457 l 1
 692 16 l 1
 692 145 l 1
 766 145 l 1
 766 -110 l 1
EndSplineSet
EndChar

StartChar: uni219D
Encoding: 136 8605 136
Width: 930
Flags: W
HStem: 161 74<452.784 543.149> 238 74<614.604 714> 315 74<221.831 326.948>
CounterMasks: 1 e0
LayerCount: 2
Back
Fore
SplineSet
855 275 m 1
 675 95 l 1
 623 147 l 1
 714 238 l 1
 653 238 l 2
 644 238 617 219 599 206 c 0
 569 185 539 161 503 161 c 0
 443 161 394 204 360 254 c 0
 339 284 313 315 277 315 c 0
 222 315 189 261 157 215 c 1
 97 258 l 1
 142 323 199 389 277 389 c 0
 337 389 385 346 420 296 c 0
 441 266 466 235 503 235 c 0
 524 235 539 254 556 267 c 0
 586 288 621 312 653 312 c 2
 714 312 l 1
 623 403 l 1
 675 455 l 1
 855 275 l 1
EndSplineSet
EndChar

StartChar: sym064.alt
Encoding: 137 -1 137
Width: 562
Flags: W
VStem: 167 74<31.8314 136.948> 244 74<423.344 524> 321 74<262.784 353.149>
CounterMasks: 1 e0
LayerCount: 2
Back
Fore
SplineSet
281 665 m 1
 461 485 l 1
 409 433 l 1
 318 524 l 1
 318 463 l 2
 318 454 337 426 350 409 c 0
 371 379 395 349 395 313 c 0
 395 253 352 204 302 170 c 0
 272 149 241 123 241 87 c 0
 241 32 295 -1 341 -33 c 1
 298 -93 l 1
 233 -48 167 9 167 87 c 0
 167 147 210 195 260 230 c 0
 290 251 321 276 321 313 c 0
 321 334 302 349 289 366 c 0
 268 396 244 431 244 463 c 2
 244 524 l 1
 153 433 l 1
 101 485 l 1
 281 665 l 1
EndSplineSet
EndChar

StartChar: uni219C.alt
Encoding: 138 -1 138
Width: 930
Flags: W
HStem: 161 74<603.052 708.169> 238 74<216 316.656> 315 74<386.851 477.216>
CounterMasks: 1 e0
LayerCount: 2
Back
Fore
SplineSet
75 275 m 1
 255 455 l 1
 307 403 l 1
 216 312 l 1
 277 312 l 2
 286 312 314 331 331 344 c 0
 361 365 391 389 427 389 c 0
 487 389 536 346 570 296 c 0
 591 266 617 235 653 235 c 0
 708 235 741 289 773 335 c 1
 833 292 l 1
 788 227 731 161 653 161 c 0
 593 161 545 204 510 254 c 0
 489 284 464 315 427 315 c 0
 406 315 391 296 374 283 c 0
 344 262 309 238 277 238 c 2
 216 238 l 1
 307 147 l 1
 255 95 l 1
 75 275 l 1
EndSplineSet
EndChar

StartChar: sym065
Encoding: 139 -1 139
Width: 562
Flags: W
VStem: 167 74<196.851 287.216> 244 74<26 126.656> 321 74<413.052 518.169>
CounterMasks: 1 e0
LayerCount: 2
Back
Fore
SplineSet
281 -115 m 1
 101 65 l 1
 153 117 l 1
 244 26 l 1
 244 87 l 2
 244 96 225 124 212 141 c 0
 191 171 167 201 167 237 c 0
 167 297 210 346 260 380 c 0
 290 401 321 427 321 463 c 0
 321 518 267 551 221 583 c 1
 264 643 l 1
 329 598 395 541 395 463 c 0
 395 403 352 355 302 320 c 0
 272 299 241 274 241 237 c 0
 241 216 260 201 273 184 c 0
 294 154 318 119 318 87 c 2
 318 26 l 1
 409 117 l 1
 461 65 l 1
 281 -115 l 1
EndSplineSet
EndChar

StartChar: uni219D.alt
Encoding: 140 -1 140
Width: 930
Flags: W
HStem: 161 74<221.831 326.948> 238 74<614.604 714> 315 74<452.784 543.149>
CounterMasks: 1 e0
LayerCount: 2
Back
Fore
SplineSet
855 275 m 1
 675 95 l 1
 623 147 l 1
 714 238 l 1
 653 238 l 2
 621 238 586 262 556 283 c 0
 539 296 524 315 503 315 c 0
 466 315 441 284 420 254 c 0
 385 204 337 161 277 161 c 0
 199 161 142 227 97 292 c 1
 157 335 l 1
 189 289 222 235 277 235 c 0
 313 235 339 266 360 296 c 0
 394 346 443 389 503 389 c 0
 539 389 569 365 599 344 c 0
 617 331 644 312 653 312 c 2
 714 312 l 1
 623 403 l 1
 675 455 l 1
 855 275 l 1
EndSplineSet
EndChar

StartChar: sym064
Encoding: 141 -1 141
Width: 562
Flags: W
VStem: 167 74<262.784 353.149> 244 74<423.344 524> 321 74<31.8314 136.948>
CounterMasks: 1 e0
LayerCount: 2
Back
Fore
SplineSet
281 665 m 1
 461 485 l 1
 409 433 l 1
 318 524 l 1
 318 463 l 2
 318 431 294 396 273 366 c 0
 260 349 241 334 241 313 c 0
 241 276 272 251 302 230 c 0
 352 195 395 147 395 87 c 0
 395 9 329 -48 264 -93 c 1
 221 -33 l 1
 267 -1 321 32 321 87 c 0
 321 123 290 149 260 170 c 0
 210 204 167 253 167 313 c 0
 167 349 191 379 212 409 c 0
 225 426 244 454 244 463 c 2
 244 524 l 1
 153 433 l 1
 101 485 l 1
 281 665 l 1
EndSplineSet
EndChar

StartChar: uni219C
Encoding: 142 8604 142
Width: 930
Flags: W
HStem: 161 74<386.851 477.216> 238 74<216 316.656> 315 74<603.052 708.169>
CounterMasks: 1 e0
LayerCount: 2
Back
Fore
SplineSet
75 275 m 1
 255 455 l 1
 307 403 l 1
 216 312 l 1
 277 312 l 2
 309 312 344 288 374 267 c 0
 391 254 406 235 427 235 c 0
 464 235 489 266 510 296 c 0
 545 346 593 389 653 389 c 0
 731 389 788 323 833 258 c 1
 773 215 l 1
 741 261 708 315 653 315 c 0
 617 315 591 284 570 254 c 0
 536 204 487 161 427 161 c 0
 391 161 361 185 331 206 c 0
 314 219 286 238 277 238 c 2
 216 238 l 1
 307 147 l 1
 255 95 l 1
 75 275 l 1
EndSplineSet
EndChar

StartChar: sym065.alt
Encoding: 143 -1 143
Width: 562
Flags: W
VStem: 167 74<413.052 518.169> 244 74<26 126.656> 321 74<196.851 287.216>
CounterMasks: 1 e0
LayerCount: 2
Back
Fore
SplineSet
281 -115 m 1
 101 65 l 1
 153 117 l 1
 244 26 l 1
 244 87 l 2
 244 119 268 154 289 184 c 0
 302 201 321 216 321 237 c 0
 321 274 290 299 260 320 c 0
 210 355 167 403 167 463 c 0
 167 541 233 598 298 643 c 1
 341 583 l 1
 295 551 241 518 241 463 c 0
 241 427 272 401 302 380 c 0
 352 346 395 297 395 237 c 0
 395 201 371 171 350 141 c 0
 337 124 318 96 318 87 c 2
 318 26 l 1
 409 117 l 1
 461 65 l 1
 281 -115 l 1
EndSplineSet
EndChar

StartChar: uni21AD
Encoding: 144 8621 144
Width: 1080
Flags: W
HStem: 161 74<602.784 692.126> 238 74<216 317.513 762.487 864> 315 74<385.886 477.216>
CounterMasks: 1 e0
LayerCount: 2
Back
Fore
SplineSet
1005 275 m 1
 825 95 l 1
 773 147 l 1
 864 238 l 1
 803 238 l 2
 781 238 767 219 749 206 c 0
 719 185 684 161 653 161 c 0
 593 161 544 204 510 254 c 0
 489 284 464 315 427 315 c 0
 406 315 391 296 373 283 c 0
 344 262 314 238 277 238 c 2
 216 238 l 1
 307 147 l 1
 255 95 l 1
 75 275 l 1
 255 455 l 1
 307 403 l 1
 216 312 l 1
 277 312 l 2
 299 312 313 331 331 344 c 0
 361 365 391 389 427 389 c 0
 487 389 536 346 570 296 c 0
 591 266 616 235 653 235 c 0
 661 235 689 254 707 267 c 0
 736 288 766 312 803 312 c 2
 864 312 l 1
 773 403 l 1
 825 455 l 1
 1005 275 l 1
EndSplineSet
EndChar

StartChar: sym066.alt
Encoding: 145 -1 145
Width: 562
Flags: W
VStem: 167 74<120.886 212.216> 244 74<-49 52.5127 497.487 599> 321 74<337.784 427.126>
CounterMasks: 1 e0
LayerCount: 2
Back
Fore
SplineSet
281 740 m 1
 461 560 l 1
 409 508 l 1
 318 599 l 1
 318 538 l 2
 318 516 337 502 350 484 c 0
 371 454 395 419 395 388 c 0
 395 328 352 279 302 245 c 0
 272 224 241 199 241 162 c 0
 241 141 260 126 273 108 c 0
 294 79 318 49 318 12 c 2
 318 -49 l 1
 409 42 l 1
 461 -10 l 1
 281 -190 l 1
 101 -10 l 1
 153 42 l 1
 244 -49 l 1
 244 12 l 2
 244 34 225 48 212 66 c 0
 191 96 167 126 167 162 c 0
 167 222 210 271 260 305 c 0
 290 326 321 351 321 388 c 0
 321 396 302 424 289 442 c 0
 268 471 244 501 244 538 c 2
 244 599 l 1
 153 508 l 1
 101 560 l 1
 281 740 l 1
EndSplineSet
EndChar

StartChar: uni21AD.alt
Encoding: 146 -1 146
Width: 1080
Flags: W
HStem: 161 74<385.886 477.216> 238 74<216 317.513 762.487 864> 315 74<602.784 692.126>
CounterMasks: 1 e0
LayerCount: 2
Back
Fore
SplineSet
1005 275 m 1
 825 95 l 1
 773 147 l 1
 864 238 l 1
 803 238 l 2
 766 238 736 262 707 283 c 0
 689 296 661 315 653 315 c 0
 616 315 591 284 570 254 c 0
 536 204 487 161 427 161 c 0
 391 161 361 185 331 206 c 0
 313 219 299 238 277 238 c 2
 216 238 l 1
 307 147 l 1
 255 95 l 1
 75 275 l 1
 255 455 l 1
 307 403 l 1
 216 312 l 1
 277 312 l 2
 314 312 344 288 373 267 c 0
 391 254 406 235 427 235 c 0
 464 235 489 266 510 296 c 0
 544 346 593 389 653 389 c 0
 684 389 719 365 749 344 c 0
 767 331 781 312 803 312 c 2
 864 312 l 1
 773 403 l 1
 825 455 l 1
 1005 275 l 1
EndSplineSet
EndChar

StartChar: sym066
Encoding: 147 -1 147
Width: 562
Flags: W
VStem: 167 74<337.784 427.126> 244 74<-49 52.5127 497.487 599> 321 74<120.886 212.216>
CounterMasks: 1 e0
LayerCount: 2
Back
Fore
SplineSet
281 740 m 1
 461 560 l 1
 409 508 l 1
 318 599 l 1
 318 538 l 2
 318 501 294 471 273 442 c 0
 260 424 241 396 241 388 c 0
 241 351 272 326 302 305 c 0
 352 271 395 222 395 162 c 0
 395 126 371 96 350 66 c 0
 337 48 318 34 318 12 c 2
 318 -49 l 1
 409 42 l 1
 461 -10 l 1
 281 -190 l 1
 101 -10 l 1
 153 42 l 1
 244 -49 l 1
 244 12 l 2
 244 49 268 79 289 108 c 0
 302 126 321 141 321 162 c 0
 321 199 290 224 260 245 c 0
 210 279 167 328 167 388 c 0
 167 419 191 454 212 484 c 0
 225 502 244 516 244 538 c 2
 244 599 l 1
 153 508 l 1
 101 560 l 1
 281 740 l 1
EndSplineSet
EndChar

StartChar: sym069
Encoding: 148 -1 148
Width: 930
Flags: W
HStem: 315 74<304.174 528.181>
LayerCount: 2
Back
Fore
SplineSet
414 389 m 0
 549 389 659 322 741 225 c 1
 751 341 l 1
 825 335 l 1
 803 81 l 1
 549 103 l 1
 555 177 l 1
 696 165 l 1
 628 252 534 315 415 315 c 0
 312 315 217 262 157 177 c 1
 97 219 l 1
 170 324 287 389 414 389 c 0
EndSplineSet
EndChar

StartChar: sym068
Encoding: 149 -1 149
Width: 562
Flags: W
VStem: 167 74<114.174 337.822>
LayerCount: 2
Back
Fore
SplineSet
167 224 m 0
 167 359 234 469 331 551 c 1
 215 561 l 1
 221 635 l 1
 475 613 l 1
 453 359 l 1
 379 365 l 1
 391 505 l 1
 303 437 241 343 241 225 c 0
 241 122 294 27 379 -33 c 1
 337 -93 l 1
 232 -20 167 97 167 224 c 0
EndSplineSet
EndChar

StartChar: sym067
Encoding: 150 -1 150
Width: 930
Flags: W
HStem: 161 74<401.819 625.826>
LayerCount: 2
Back
Fore
SplineSet
516 161 m 0
 381 161 271 228 189 325 c 1
 179 209 l 1
 105 215 l 1
 127 469 l 1
 381 447 l 1
 375 373 l 1
 234 385 l 1
 302 298 396 235 515 235 c 0
 618 235 713 288 773 373 c 1
 833 331 l 1
 760 226 643 161 516 161 c 0
EndSplineSet
EndChar

StartChar: uni2938
Encoding: 151 10552 151
Width: 562
Flags: W
VStem: 321 74<211.819 435.826>
LayerCount: 2
Back
Fore
SplineSet
395 326 m 0
 395 191 328 81 231 -1 c 1
 347 -11 l 1
 341 -85 l 1
 87 -63 l 1
 109 191 l 1
 183 185 l 1
 171 44 l 1
 258 112 321 206 321 325 c 0
 321 428 268 523 183 583 c 1
 225 643 l 1
 330 570 395 453 395 326 c 0
EndSplineSet
EndChar

StartChar: sym06C
Encoding: 152 -1 152
Width: 980
Flags: W
HStem: 363 74<543.92 721>
VStem: 263 74<-12.3824 161.512>
LayerCount: 2
Back
Fore
SplineSet
866 377 m 1
 671 213 l 1
 624 270 l 1
 731 360 l 1
 712 362 693 363 674 363 c 0
 587 363 503 338 438 279 c 0
 372 220 337 135 337 47 c 0
 337 27 339 8 342 -12 c 1
 269 -25 l 1
 265 -1 263 23 263 47 c 0
 263 155 305 258 386 332 c 0
 465 405 569 437 676 437 c 0
 691 437 706 436 721 435 c 1
 646 524 l 1
 703 572 l 1
 866 377 l 1
EndSplineSet
EndChar

StartChar: sym06B
Encoding: 153 -1 153
Width: 980
Flags: W
HStem: 48 74<604.186 777.382>
VStem: 328 74<328.882 506>
LayerCount: 2
Back
Fore
SplineSet
389 651 m 1
 552 456 l 1
 496 408 l 1
 405 516 l 1
 403 497 402 478 402 459 c 0
 402 372 427 288 486 223 c 0
 546 157 631 122 719 122 c 0
 738 122 758 124 777 127 c 1
 790 54 l 1
 766 50 742 48 718 48 c 0
 611 48 507 90 434 170 c 0
 361 250 328 354 328 461 c 0
 328 476 329 491 330 506 c 1
 241 431 l 1
 193 487 l 1
 389 651 l 1
EndSplineSet
EndChar

StartChar: uni2936
Encoding: 154 10550 154
Width: 980
Flags: W
HStem: 113 74<259 436.118>
VStem: 643 74<385.834 562.382>
LayerCount: 2
Back
Fore
SplineSet
114 173 m 1
 309 337 l 1
 357 280 l 1
 250 190 l 1
 269 188 287 187 306 187 c 0
 393 187 477 212 542 271 c 0
 609 330 643 414 643 502 c 0
 643 522 641 542 638 562 c 1
 711 575 l 1
 715 551 717 527 717 503 c 0
 717 395 675 292 595 218 c 0
 515 145 411 113 304 113 c 0
 289 113 274 114 259 115 c 1
 335 26 l 1
 278 -22 l 1
 114 173 l 1
EndSplineSet
EndChar

StartChar: uni2935
Encoding: 155 10549 155
Width: 980
Flags: W
HStem: 428 74<202.618 376.558>
VStem: 579 73<44 221.426>
LayerCount: 2
Back
Fore
SplineSet
592 -101 m 1
 428 94 l 1
 485 142 l 1
 575 34 l 1
 577 53 579 72 579 91 c 0
 579 178 554 262 495 327 c 0
 435 393 350 428 262 428 c 0
 242 428 223 426 203 423 c 1
 190 496 l 1
 214 500 238 502 262 502 c 0
 370 502 473 460 547 380 c 0
 620 300 652 197 652 90 c 0
 652 75 651 59 650 44 c 1
 739 119 l 1
 787 63 l 1
 592 -101 l 1
EndSplineSet
EndChar

StartChar: uni293B
Encoding: 156 10555 156
Width: 930
Flags: W
HStem: 161 74<304.174 528.181>
LayerCount: 2
Back
Fore
SplineSet
741 325 m 1
 659 228 549 161 414 161 c 0
 287 161 170 226 97 331 c 1
 157 373 l 1
 217 288 312 235 415 235 c 0
 534 235 628 298 696 385 c 1
 555 373 l 1
 549 447 l 1
 803 469 l 1
 825 215 l 1
 751 209 l 1
 741 325 l 1
EndSplineSet
EndChar

StartChar: sym06A
Encoding: 157 -1 157
Width: 562
Flags: W
VStem: 321 74<114.174 338.181>
LayerCount: 2
Back
Fore
SplineSet
231 551 m 1
 328 469 395 359 395 224 c 0
 395 97 330 -20 225 -93 c 1
 183 -33 l 1
 268 27 321 122 321 225 c 0
 321 344 258 438 171 506 c 1
 183 365 l 1
 109 359 l 1
 87 613 l 1
 341 635 l 1
 347 561 l 1
 231 551 l 1
EndSplineSet
EndChar

StartChar: uni293A
Encoding: 158 10554 158
Width: 930
Flags: W
HStem: 315 74<401.819 625.826>
LayerCount: 2
Back
Fore
SplineSet
189 225 m 1
 271 322 381 389 516 389 c 0
 643 389 760 324 833 219 c 1
 773 177 l 1
 713 262 618 315 515 315 c 0
 396 315 302 252 234 165 c 1
 375 177 l 1
 381 103 l 1
 127 81 l 1
 105 335 l 1
 179 341 l 1
 189 225 l 1
EndSplineSet
EndChar

StartChar: uni2939
Encoding: 159 10553 159
Width: 562
Flags: W
VStem: 167 74<211.956 435.826>
LayerCount: 2
Back
Fore
SplineSet
331 -1 m 1
 234 81 167 191 167 326 c 0
 167 453 232 570 337 643 c 1
 379 583 l 1
 294 523 241 428 241 325 c 0
 241 206 303 113 391 45 c 1
 379 185 l 1
 453 191 l 1
 475 -63 l 1
 221 -85 l 1
 215 -11 l 1
 331 -1 l 1
EndSplineSet
EndChar

StartChar: uni2934
Encoding: 160 10548 160
Width: 980
Flags: W
HStem: 48 74<202.618 376.558>
VStem: 579 73<328.574 505.304>
LayerCount: 2
Back
Fore
SplineSet
592 651 m 1
 787 487 l 1
 739 431 l 1
 650 506 l 1
 651 491 652 475 652 460 c 0
 652 353 620 250 547 170 c 0
 473 90 370 48 262 48 c 0
 238 48 214 50 190 54 c 1
 203 127 l 1
 223 124 242 122 262 122 c 0
 350 122 435 157 495 223 c 0
 554 288 579 372 579 459 c 0
 579 478 577 497 575 516 c 1
 485 408 l 1
 428 456 l 1
 592 651 l 1
EndSplineSet
EndChar

StartChar: sym06D
Encoding: 161 -1 161
Width: 980
Flags: W
HStem: 363 74<259.711 436.118>
VStem: 643 74<-12.3824 164.166>
LayerCount: 2
Back
Fore
SplineSet
114 377 m 1
 278 572 l 1
 335 524 l 1
 259 435 l 1
 274 436 289 437 304 437 c 0
 411 437 515 405 595 332 c 0
 675 258 717 155 717 47 c 0
 717 23 715 -1 711 -25 c 1
 638 -12 l 1
 641 8 643 28 643 48 c 0
 643 136 609 220 542 279 c 0
 477 338 393 363 306 363 c 0
 287 363 269 362 250 360 c 1
 357 270 l 1
 309 213 l 1
 114 377 l 1
EndSplineSet
EndChar

StartChar: sym06E
Encoding: 162 -1 162
Width: 980
Flags: W
HStem: 428 74<604.186 777.382>
VStem: 328 74<44.6953 221.118>
LayerCount: 2
Back
Fore
SplineSet
389 -101 m 1
 193 63 l 1
 241 119 l 1
 330 44 l 1
 329 59 328 74 328 89 c 0
 328 196 361 300 434 380 c 0
 507 460 611 502 718 502 c 0
 742 502 766 500 790 496 c 1
 777 423 l 1
 758 426 738 428 719 428 c 0
 631 428 546 393 486 327 c 0
 427 262 402 178 402 91 c 0
 402 72 403 53 405 34 c 1
 496 142 l 1
 552 94 l 1
 389 -101 l 1
EndSplineSet
EndChar

StartChar: uni2937
Encoding: 163 10551 163
Width: 980
Flags: W
HStem: 113 74<543.92 720.305>
VStem: 263 74<388.488 562.382>
LayerCount: 2
Back
Fore
SplineSet
866 173 m 1
 703 -22 l 1
 646 26 l 1
 721 115 l 1
 706 114 691 113 676 113 c 0
 569 113 465 145 386 218 c 0
 305 292 263 395 263 503 c 0
 263 527 265 551 269 575 c 1
 342 562 l 1
 339 542 337 523 337 503 c 0
 337 415 372 330 438 271 c 0
 503 212 587 187 674 187 c 0
 693 187 712 188 731 190 c 1
 624 280 l 1
 671 337 l 1
 866 173 l 1
EndSplineSet
EndChar

StartChar: sym06F
Encoding: 164 -1 164
Width: 1080
Flags: W
HStem: 315 74<418.507 661.493>
LayerCount: 2
Back
Fore
SplineSet
945 81 m 1
 692 103 l 1
 698 177 l 1
 837 165 l 1
 763 256 658 315 540 315 c 0
 422 315 317 256 243 165 c 1
 382 177 l 1
 388 103 l 1
 135 81 l 1
 112 335 l 1
 186 341 l 1
 196 225 l 1
 283 325 406 389 540 389 c 0
 674 389 797 325 884 225 c 1
 894 341 l 1
 968 335 l 1
 945 81 l 1
EndSplineSet
EndChar

StartChar: sym070
Encoding: 165 -1 165
Width: 562
Flags: W
VStem: 167 74<153.507 396.493>
LayerCount: 2
Back
Fore
SplineSet
475 680 m 1
 453 427 l 1
 379 433 l 1
 391 572 l 1
 300 498 241 393 241 275 c 0
 241 157 300 52 391 -22 c 1
 379 117 l 1
 453 123 l 1
 475 -130 l 1
 221 -153 l 1
 215 -79 l 1
 331 -69 l 1
 231 18 167 141 167 275 c 0
 167 409 231 532 331 619 c 1
 215 629 l 1
 221 703 l 1
 475 680 l 1
EndSplineSet
EndChar

StartChar: sym071
Encoding: 166 -1 166
Width: 1080
Flags: W
HStem: 161 74<418.507 661.493>
LayerCount: 2
Back
Fore
SplineSet
135 469 m 1
 388 447 l 1
 382 373 l 1
 243 385 l 1
 317 294 422 235 540 235 c 0
 658 235 763 294 837 385 c 1
 698 373 l 1
 692 447 l 1
 945 469 l 1
 968 215 l 1
 894 209 l 1
 884 325 l 1
 797 225 674 161 540 161 c 0
 406 161 283 225 196 325 c 1
 186 209 l 1
 112 215 l 1
 135 469 l 1
EndSplineSet
EndChar

StartChar: sym072
Encoding: 167 -1 167
Width: 562
Flags: W
VStem: 321 74<153.507 396.493>
LayerCount: 2
Back
Fore
SplineSet
87 -130 m 1
 109 123 l 1
 183 117 l 1
 171 -22 l 1
 262 52 321 157 321 275 c 0
 321 393 262 498 171 572 c 1
 183 433 l 1
 109 427 l 1
 87 680 l 1
 341 703 l 1
 347 629 l 1
 231 619 l 1
 331 532 395 409 395 275 c 0
 395 141 331 18 231 -69 c 1
 347 -79 l 1
 341 -153 l 1
 87 -130 l 1
EndSplineSet
EndChar

StartChar: sym074
Encoding: 168 -1 168
Width: 1087
Flags: W
HStem: 409 74<653.135 822>
VStem: 335 74<-4 165.992>
LayerCount: 2
Back
Fore
SplineSet
967 424 m 1
 772 261 l 1
 724 317 l 1
 831 407 l 1
 816 409 800 409 785 409 c 0
 685 409 587 375 515 303 c 0
 443 231 409 134 409 34 c 0
 409 18 409 3 411 -13 c 1
 501 94 l 1
 558 46 l 1
 394 -149 l 1
 199 15 l 1
 246 72 l 1
 337 -4 l 1
 336 9 335 21 335 34 c 0
 335 154 377 270 463 356 c 0
 549 442 666 483 786 483 c 0
 798 483 810 483 822 482 c 1
 747 572 l 1
 803 620 l 1
 967 424 l 1
EndSplineSet
EndChar

StartChar: sym073
Encoding: 169 -1 169
Width: 1087
Flags: W
HStem: 67 74<653.135 822>
VStem: 335 74<384.008 554>
LayerCount: 2
Back
Fore
SplineSet
394 699 m 1
 558 504 l 1
 501 456 l 1
 411 563 l 1
 409 547 409 532 409 516 c 0
 409 416 443 319 515 247 c 0
 587 175 685 141 785 141 c 0
 800 141 816 141 831 143 c 1
 724 233 l 1
 772 289 l 1
 967 126 l 1
 803 -70 l 1
 747 -22 l 1
 822 68 l 1
 810 67 798 67 786 67 c 0
 666 67 549 108 463 194 c 0
 377 280 335 396 335 516 c 0
 335 529 336 541 337 554 c 1
 246 478 l 1
 199 535 l 1
 394 699 l 1
EndSplineSet
EndChar

StartChar: sym076
Encoding: 170 -1 170
Width: 1087
Flags: W
HStem: 67 74<265 433.937>
VStem: 677 74<384.482 554>
LayerCount: 2
Back
Fore
SplineSet
119 126 m 1
 315 289 l 1
 362 233 l 1
 255 143 l 1
 270 141 287 141 302 141 c 0
 403 141 500 175 572 247 c 0
 643 319 677 416 677 516 c 0
 677 532 677 547 675 563 c 1
 586 456 l 1
 529 504 l 1
 693 699 l 1
 888 535 l 1
 840 478 l 1
 750 554 l 1
 751 542 751 529 751 517 c 0
 751 397 710 281 624 194 c 0
 537 108 421 67 301 67 c 0
 289 67 277 67 265 68 c 1
 340 -22 l 1
 283 -70 l 1
 119 126 l 1
EndSplineSet
EndChar

StartChar: sym075
Encoding: 171 -1 171
Width: 1087
Flags: W
HStem: 409 74<265 433.937>
VStem: 677 74<-4 165.518>
LayerCount: 2
Back
Fore
SplineSet
693 -149 m 1
 529 46 l 1
 586 94 l 1
 675 -13 l 1
 677 3 677 18 677 34 c 0
 677 134 643 231 572 303 c 0
 500 375 403 409 302 409 c 0
 287 409 270 409 255 407 c 1
 362 317 l 1
 315 261 l 1
 119 424 l 1
 283 620 l 1
 340 572 l 1
 265 482 l 1
 277 483 289 483 301 483 c 0
 421 483 537 442 624 356 c 0
 710 269 751 153 751 33 c 0
 751 21 751 8 750 -4 c 1
 840 72 l 1
 888 15 l 1
 693 -149 l 1
EndSplineSet
EndChar

StartChar: sym077
Encoding: 172 -1 172
Width: 930
Flags: W
HStem: 238 74<164 840>
VStem: 90 74<84 238 312 466>
LayerCount: 2
Back
Fore
SplineSet
164 84 m 1
 90 84 l 1
 90 466 l 1
 164 466 l 1
 164 312 l 1
 840 312 l 1
 840 238 l 1
 164 238 l 1
 164 84 l 1
EndSplineSet
EndChar

StartChar: sym078
Encoding: 173 -1 173
Width: 930
Flags: W
HStem: 238 74<90 766>
VStem: 766 74<84 238 312 466>
LayerCount: 2
Back
Fore
SplineSet
766 466 m 1
 840 466 l 1
 840 84 l 1
 766 84 l 1
 766 238 l 1
 90 238 l 1
 90 312 l 1
 766 312 l 1
 766 466 l 1
EndSplineSet
EndChar

StartChar: sym079
Encoding: 174 -1 174
Width: 1260
Flags: W
HStem: -199 74<501.456 758.544> 675 74<501.456 758.544>
VStem: 156 74<146.456 403.544> 1024 73<355.849 418.849>
LayerCount: 2
Back
Fore
SplineSet
1083 246 m 1
 1170 7 l 1
 1100 -18 l 1
 1064 83 l 1
 1040 30 1007 -19 965 -60 c 0
 876 -149 756 -199 630 -199 c 0
 504 -199 384 -149 295 -60 c 0
 206 29 156 149 156 275 c 0
 156 401 206 521 295 610 c 0
 384 699 504 749 630 749 c 0
 756 749 876 699 965 610 c 0
 1034 542 1080 453 1097 357 c 1
 1024 345 l 1
 1010 425 971 500 913 558 c 0
 838 633 736 675 630 675 c 0
 524 675 422 633 347 558 c 0
 272 483 230 381 230 275 c 0
 230 169 272 67 347 -8 c 0
 422 -83 524 -125 630 -125 c 0
 736 -125 838 -83 913 -8 c 0
 955 34 987 85 1007 140 c 1
 869 90 l 1
 843 159 l 1
 1083 246 l 1
EndSplineSet
EndChar

StartChar: uni21BA
Encoding: 175 8634 175
Width: 1260
Flags: W
HStem: -199 74<501.456 758.544> 669 73<486.151 549.151>
VStem: 156 74<146.456 403.544> 1030 74<146.456 403.544>
LayerCount: 2
Back
Fore
SplineSet
659 728 m 1
 898 815 l 1
 923 745 l 1
 822 709 l 1
 875 685 924 652 965 610 c 0
 1054 521 1104 401 1104 275 c 0
 1104 149 1054 29 965 -60 c 0
 876 -149 756 -199 630 -199 c 0
 504 -199 384 -149 295 -60 c 0
 206 29 156 149 156 275 c 0
 156 401 206 521 295 610 c 0
 363 679 452 725 548 742 c 1
 560 669 l 1
 480 655 405 616 347 558 c 0
 272 483 230 381 230 275 c 0
 230 169 272 67 347 -8 c 0
 422 -83 524 -125 630 -125 c 0
 736 -125 838 -83 913 -8 c 0
 988 67 1030 169 1030 275 c 0
 1030 381 988 483 913 558 c 0
 871 600 820 632 765 652 c 1
 815 514 l 1
 746 488 l 1
 659 728 l 1
EndSplineSet
EndChar

StartChar: uni27F2
Encoding: 176 10226 176
Width: 1260
Flags: W
HStem: -199 74<501.456 758.544> 675 74<501.456 758.544>
VStem: 163 73<131.151 194.151> 1030 74<146.456 403.544>
LayerCount: 2
Back
Fore
SplineSet
177 304 m 1
 90 543 l 1
 160 568 l 1
 196 467 l 1
 220 520 253 569 295 610 c 0
 384 699 504 749 630 749 c 0
 756 749 876 699 965 610 c 0
 1054 521 1104 401 1104 275 c 0
 1104 149 1054 29 965 -60 c 0
 876 -149 756 -199 630 -199 c 0
 504 -199 384 -149 295 -60 c 0
 226 8 180 97 163 193 c 1
 236 205 l 1
 250 125 289 50 347 -8 c 0
 422 -83 524 -125 630 -125 c 0
 736 -125 838 -83 913 -8 c 0
 988 67 1030 169 1030 275 c 0
 1030 381 988 483 913 558 c 0
 838 633 736 675 630 675 c 0
 524 675 422 633 347 558 c 0
 305 516 273 465 253 410 c 1
 391 460 l 1
 417 391 l 1
 177 304 l 1
EndSplineSet
EndChar

StartChar: sym07C
Encoding: 177 -1 177
Width: 1260
Flags: W
HStem: -192 73<710.849 773.849> 675 74<501.456 758.544>
VStem: 156 74<146.456 403.544> 1030 74<146.456 403.544>
LayerCount: 2
Back
Fore
SplineSet
601 -178 m 1
 362 -265 l 1
 337 -195 l 1
 438 -159 l 1
 385 -135 336 -102 295 -60 c 0
 206 29 156 149 156 275 c 0
 156 401 206 521 295 610 c 0
 384 699 504 749 630 749 c 0
 756 749 876 699 965 610 c 0
 1054 521 1104 401 1104 275 c 0
 1104 149 1054 29 965 -60 c 0
 897 -129 808 -175 712 -192 c 1
 700 -119 l 1
 780 -105 855 -66 913 -8 c 0
 988 67 1030 169 1030 275 c 0
 1030 381 988 483 913 558 c 0
 838 633 736 675 630 675 c 0
 524 675 422 633 347 558 c 0
 272 483 230 381 230 275 c 0
 230 169 272 67 347 -8 c 0
 389 -50 440 -82 495 -102 c 1
 445 36 l 1
 514 62 l 1
 601 -178 l 1
EndSplineSet
EndChar

StartChar: uni27F3
Encoding: 178 10227 178
Width: 1260
Flags: W
HStem: -199 74<501.456 758.544> 675 74<501.456 758.544>
VStem: 156 74<146.456 403.544> 1024 73<131.151 194.151>
LayerCount: 2
Back
Fore
SplineSet
1083 304 m 1
 843 391 l 1
 869 460 l 1
 1007 410 l 1
 987 465 955 516 913 558 c 0
 838 633 736 675 630 675 c 0
 524 675 422 633 347 558 c 0
 272 483 230 381 230 275 c 0
 230 169 272 67 347 -8 c 0
 422 -83 524 -125 630 -125 c 0
 736 -125 838 -83 913 -8 c 0
 971 50 1010 125 1024 205 c 1
 1097 193 l 1
 1080 97 1034 8 965 -60 c 0
 876 -149 756 -199 630 -199 c 0
 504 -199 384 -149 295 -60 c 0
 206 29 156 149 156 275 c 0
 156 401 206 521 295 610 c 0
 384 699 504 749 630 749 c 0
 756 749 876 699 965 610 c 0
 1007 569 1040 520 1064 467 c 1
 1100 568 l 1
 1170 543 l 1
 1083 304 l 1
EndSplineSet
EndChar

StartChar: uni21BB
Encoding: 179 8635 179
Width: 1260
Flags: W
HStem: -199 74<501.456 758.544> 669 73<710.849 773.849>
VStem: 156 74<146.456 403.544> 1030 74<146.456 403.544>
LayerCount: 2
Back
Fore
SplineSet
601 728 m 1
 514 488 l 1
 445 514 l 1
 495 652 l 1
 440 632 389 600 347 558 c 0
 272 483 230 381 230 275 c 0
 230 169 272 67 347 -8 c 0
 422 -83 524 -125 630 -125 c 0
 736 -125 838 -83 913 -8 c 0
 988 67 1030 169 1030 275 c 0
 1030 381 988 483 913 558 c 0
 855 616 780 655 700 669 c 1
 712 742 l 1
 808 725 897 679 965 610 c 0
 1054 521 1104 401 1104 275 c 0
 1104 149 1054 29 965 -60 c 0
 876 -149 756 -199 630 -199 c 0
 504 -199 384 -149 295 -60 c 0
 206 29 156 149 156 275 c 0
 156 401 206 521 295 610 c 0
 336 652 385 685 438 709 c 1
 337 745 l 1
 362 815 l 1
 601 728 l 1
EndSplineSet
EndChar

StartChar: sym07A
Encoding: 180 -1 180
Width: 1260
Flags: W
HStem: -199 74<501.456 758.544> 675 74<501.456 758.544>
VStem: 163 73<355.849 418.849> 1030 74<146.456 403.544>
LayerCount: 2
Back
Fore
SplineSet
177 246 m 1
 417 159 l 1
 391 90 l 1
 253 140 l 1
 273 85 305 34 347 -8 c 0
 422 -83 524 -125 630 -125 c 0
 736 -125 838 -83 913 -8 c 0
 988 67 1030 169 1030 275 c 0
 1030 381 988 483 913 558 c 0
 838 633 736 675 630 675 c 0
 524 675 422 633 347 558 c 0
 289 500 250 425 236 345 c 1
 163 357 l 1
 180 453 226 542 295 610 c 0
 384 699 504 749 630 749 c 0
 756 749 876 699 965 610 c 0
 1054 521 1104 401 1104 275 c 0
 1104 149 1054 29 965 -60 c 0
 876 -149 756 -199 630 -199 c 0
 504 -199 384 -149 295 -60 c 0
 253 -19 220 30 196 83 c 1
 160 -18 l 1
 90 7 l 1
 177 246 l 1
EndSplineSet
EndChar

StartChar: sym07B
Encoding: 181 -1 181
Width: 1260
Flags: W
HStem: -192 73<486.151 549.151> 675 74<501.456 758.544>
VStem: 156 74<146.456 403.544> 1030 74<146.456 403.544>
LayerCount: 2
Back
Fore
SplineSet
659 -178 m 1
 746 62 l 1
 815 36 l 1
 765 -102 l 1
 820 -82 871 -50 913 -8 c 0
 988 67 1030 169 1030 275 c 0
 1030 381 988 483 913 558 c 0
 838 633 736 675 630 675 c 0
 524 675 422 633 347 558 c 0
 272 483 230 381 230 275 c 0
 230 169 272 67 347 -8 c 0
 405 -66 480 -105 560 -119 c 1
 548 -192 l 1
 452 -175 363 -129 295 -60 c 0
 206 29 156 149 156 275 c 0
 156 401 206 521 295 610 c 0
 384 699 504 749 630 749 c 0
 756 749 876 699 965 610 c 0
 1054 521 1104 401 1104 275 c 0
 1104 149 1054 29 965 -60 c 0
 924 -102 875 -135 822 -159 c 1
 923 -195 l 1
 898 -265 l 1
 659 -178 l 1
EndSplineSet
EndChar

StartChar: uni21DB
Encoding: 182 8667 182
Width: 1080
Flags: W
HStem: 117 59<90 743> 245 60<90 871> 374 59<90 743>
CounterMasks: 1 e0
LayerCount: 2
Back
Fore
SplineSet
1005 275 m 1
 748 18 l 1
 696 70 l 1
 743 117 l 1
 90 117 l 1
 90 176 l 1
 802 176 l 1
 871 245 l 1
 90 245 l 1
 90 305 l 1
 871 305 l 1
 802 374 l 1
 90 374 l 1
 90 433 l 1
 743 433 l 1
 696 480 l 1
 748 532 l 1
 1005 275 l 1
EndSplineSet
EndChar

StartChar: uni290A
Encoding: 183 10506 183
Width: 685
Flags: W
VStem: 185 59<-175 478> 313 59<-175 606> 441 60<-175 477>
LayerCount: 2
Back
Fore
SplineSet
343 740 m 1
 600 483 l 1
 547 431 l 1
 501 477 l 1
 501 -175 l 1
 441 -175 l 1
 441 538 l 1
 372 607 l 1
 372 -175 l 1
 313 -175 l 1
 313 606 l 1
 244 537 l 1
 244 -175 l 1
 185 -175 l 1
 185 478 l 1
 138 431 l 1
 85 483 l 1
 343 740 l 1
EndSplineSet
EndChar

StartChar: uni21DA
Encoding: 184 8666 184
Width: 1080
Flags: W
HStem: 117 59<337 990> 245 60<209 990> 374 59<337 990>
CounterMasks: 1 e0
LayerCount: 2
Back
Fore
SplineSet
75 275 m 1
 332 532 l 1
 384 480 l 1
 337 433 l 1
 990 433 l 1
 990 374 l 1
 278 374 l 1
 209 305 l 1
 990 305 l 1
 990 245 l 1
 209 245 l 1
 278 176 l 1
 990 176 l 1
 990 117 l 1
 337 117 l 1
 384 70 l 1
 332 18 l 1
 75 275 l 1
EndSplineSet
EndChar

StartChar: uni290B
Encoding: 185 10507 185
Width: 685
Flags: W
VStem: 185 59<72 725> 313 59<-56 725> 441 60<73 725>
LayerCount: 2
Back
Fore
SplineSet
343 -190 m 1
 85 67 l 1
 138 119 l 1
 185 72 l 1
 185 725 l 1
 244 725 l 1
 244 13 l 1
 313 -56 l 1
 313 725 l 1
 372 725 l 1
 372 -57 l 1
 441 12 l 1
 441 725 l 1
 501 725 l 1
 501 73 l 1
 547 119 l 1
 600 67 l 1
 343 -190 l 1
EndSplineSet
EndChar

StartChar: uni27F6
Encoding: 186 10230 186
Width: 1680
Flags: W
HStem: 238 74<90 1464>
LayerCount: 2
Back
Fore
SplineSet
1605 275 m 1
 1425 95 l 1
 1373 147 l 1
 1464 238 l 1
 90 238 l 1
 90 312 l 1
 1464 312 l 1
 1373 403 l 1
 1425 455 l 1
 1605 275 l 1
EndSplineSet
EndChar

StartChar: uni27F5
Encoding: 187 10229 187
Width: 1680
Flags: W
HStem: 238 74<216 1590>
LayerCount: 2
Back
Fore
SplineSet
75 275 m 1
 255 455 l 1
 307 403 l 1
 216 312 l 1
 1590 312 l 1
 1590 238 l 1
 216 238 l 1
 307 147 l 1
 255 95 l 1
 75 275 l 1
EndSplineSet
EndChar

StartChar: uni27F9
Encoding: 188 10233 188
Width: 1680
Flags: W
HStem: 142 74<90 1368> 334 74<90 1368>
LayerCount: 2
Back
Fore
SplineSet
1605 275 m 1
 1379 49 l 1
 1327 101 l 1
 1368 142 l 1
 90 142 l 1
 90 216 l 1
 1442 216 l 1
 1501 275 l 1
 1442 334 l 1
 90 334 l 1
 90 408 l 1
 1368 408 l 1
 1327 449 l 1
 1379 501 l 1
 1605 275 l 1
EndSplineSet
EndChar

StartChar: uni27F8
Encoding: 189 10232 189
Width: 1680
Flags: W
HStem: 142 74<312 1590> 334 74<312 1590>
LayerCount: 2
Back
Fore
SplineSet
75 275 m 1
 301 501 l 1
 353 449 l 1
 312 408 l 1
 1590 408 l 1
 1590 334 l 1
 238 334 l 1
 179 275 l 1
 238 216 l 1
 1590 216 l 1
 1590 142 l 1
 312 142 l 1
 353 101 l 1
 301 49 l 1
 75 275 l 1
EndSplineSet
EndChar

StartChar: uni27F7
Encoding: 190 10231 190
Width: 1680
Flags: W
HStem: 238 74<216 1464>
LayerCount: 2
Back
Fore
SplineSet
75 275 m 1
 255 455 l 1
 307 403 l 1
 216 312 l 1
 1464 312 l 1
 1373 403 l 1
 1425 455 l 1
 1605 275 l 1
 1425 95 l 1
 1373 147 l 1
 1464 238 l 1
 216 238 l 1
 307 147 l 1
 255 95 l 1
 75 275 l 1
EndSplineSet
EndChar

StartChar: uni27FA
Encoding: 191 10234 191
Width: 1680
Flags: W
HStem: 142 74<312 1368> 334 74<312 1368>
LayerCount: 2
Back
Fore
SplineSet
1442 334 m 1
 238 334 l 1
 179 275 l 1
 238 216 l 1
 1442 216 l 1
 1501 275 l 1
 1442 334 l 1
75 275 m 1
 301 501 l 1
 353 449 l 1
 312 408 l 1
 1368 408 l 1
 1327 449 l 1
 1379 501 l 1
 1605 275 l 1
 1379 49 l 1
 1327 101 l 1
 1368 142 l 1
 312 142 l 1
 353 101 l 1
 301 49 l 1
 75 275 l 1
EndSplineSet
EndChar

StartChar: uni27FC
Encoding: 192 10236 192
Width: 1680
Flags: W
HStem: 238 74<164 1464>
VStem: 90 74<84 238 312 466>
LayerCount: 2
Back
Fore
SplineSet
1605 275 m 1
 1425 95 l 1
 1373 147 l 1
 1464 238 l 1
 164 238 l 1
 164 84 l 1
 90 84 l 1
 90 466 l 1
 164 466 l 1
 164 312 l 1
 1464 312 l 1
 1373 403 l 1
 1425 455 l 1
 1605 275 l 1
EndSplineSet
EndChar

StartChar: uni27FB
Encoding: 193 10235 193
Width: 1680
Flags: W
HStem: 238 74<216 1516>
VStem: 1516 74<84 238 312 466>
LayerCount: 2
Back
Fore
SplineSet
75 275 m 1
 255 455 l 1
 307 403 l 1
 216 312 l 1
 1516 312 l 1
 1516 466 l 1
 1590 466 l 1
 1590 84 l 1
 1516 84 l 1
 1516 238 l 1
 216 238 l 1
 307 147 l 1
 255 95 l 1
 75 275 l 1
EndSplineSet
EndChar

StartChar: uni27FE
Encoding: 194 10238 194
Width: 1680
Flags: W
HStem: 142 74<164 1368> 334 74<164 1368>
VStem: 90 74<38 142 216 334 408 512>
LayerCount: 2
Back
Fore
SplineSet
164 334 m 1
 164 216 l 1
 1442 216 l 1
 1501 275 l 1
 1442 334 l 1
 164 334 l 1
1605 275 m 1
 1379 49 l 1
 1327 101 l 1
 1368 142 l 1
 164 142 l 1
 164 38 l 1
 90 38 l 1
 90 512 l 1
 164 512 l 1
 164 408 l 1
 1368 408 l 1
 1327 449 l 1
 1379 501 l 1
 1605 275 l 1
EndSplineSet
EndChar

StartChar: uni27FD
Encoding: 195 10237 195
Width: 1680
Flags: W
HStem: 142 74<312 1516> 334 74<312 1516>
VStem: 1516 74<38 142 216 334 408 512>
LayerCount: 2
Back
Fore
SplineSet
1516 216 m 1
 1516 334 l 1
 238 334 l 1
 179 275 l 1
 238 216 l 1
 1516 216 l 1
75 275 m 1
 301 501 l 1
 353 449 l 1
 312 408 l 1
 1516 408 l 1
 1516 512 l 1
 1590 512 l 1
 1590 38 l 1
 1516 38 l 1
 1516 142 l 1
 312 142 l 1
 353 101 l 1
 301 49 l 1
 75 275 l 1
EndSplineSet
EndChar

StartChar: uni27FF
Encoding: 196 10239 196
Width: 1680
Flags: W
HStem: 161 74<418.696 499.017 816.696 897.017 1214.43 1288.72> 238 74<1353.21 1464> 315 74<211.565 300.017 617.696 698.017 1015.43 1095.84>
CounterMasks: 1 e0
LayerCount: 2
Back
Fore
SplineSet
1605 275 m 1
 1425 95 l 1
 1373 147 l 1
 1464 238 l 1
 1387 238 l 2
 1370 238 1359 222 1347 210 c 0
 1321 185 1291 161 1255 161 c 0
 1198 161 1157 207 1125 254 c 0
 1106 281 1088 315 1056 315 c 0
 1023 315 1005 281 986 254 c 0
 954 207 913 161 857 161 c 0
 800 161 760 207 727 254 c 0
 708 281 691 315 658 315 c 0
 625 315 608 281 588 254 c 0
 556 207 515 161 459 161 c 0
 402 161 362 207 329 254 c 0
 310 281 293 315 260 315 c 0
 208 315 187 258 157 215 c 1
 97 258 l 1
 140 319 186 389 260 389 c 0
 316 389 357 343 389 296 c 0
 409 269 426 235 459 235 c 0
 492 235 509 269 528 296 c 0
 561 343 601 389 658 389 c 0
 714 389 755 343 787 296 c 0
 807 269 824 235 857 235 c 0
 890 235 907 269 926 296 c 0
 958 343 999 389 1056 389 c 0
 1112 389 1153 343 1185 296 c 0
 1204 269 1222 235 1255 235 c 0
 1272 235 1283 251 1295 263 c 0
 1320 288 1351 312 1387 312 c 2
 1464 312 l 1
 1373 403 l 1
 1425 455 l 1
 1605 275 l 1
EndSplineSet
EndChar

StartChar: uni2B33
Encoding: 197 11059 197
Width: 1680
Flags: W
HStem: 161 74<391.282 465.568 783.164 863.568 1180.98 1261.3> 238 74<216 326.787> 315 74<584.164 664.568 981.983 1062.57 1379.98 1468.43>
CounterMasks: 1 e0
LayerCount: 2
Back
Fore
SplineSet
75 275 m 1
 255 455 l 1
 307 403 l 1
 216 312 l 1
 293 312 l 2
 329 312 360 288 385 263 c 0
 397 251 408 235 425 235 c 0
 458 235 476 269 495 296 c 0
 527 343 568 389 624 389 c 0
 681 389 722 343 754 296 c 0
 773 269 791 235 823 235 c 0
 856 235 874 269 893 296 c 0
 925 343 966 389 1022 389 c 0
 1079 389 1120 343 1152 296 c 0
 1171 269 1188 235 1221 235 c 0
 1254 235 1271 269 1291 296 c 0
 1323 343 1364 389 1420 389 c 0
 1494 389 1540 319 1583 258 c 1
 1523 215 l 1
 1493 258 1472 315 1420 315 c 0
 1387 315 1370 281 1351 254 c 0
 1318 207 1278 161 1221 161 c 0
 1165 161 1124 207 1092 254 c 0
 1073 281 1055 315 1022 315 c 0
 989 315 972 281 953 254 c 0
 921 207 880 161 823 161 c 0
 767 161 726 207 694 254 c 0
 675 281 657 315 624 315 c 0
 592 315 574 281 555 254 c 0
 523 207 482 161 425 161 c 0
 389 161 359 185 333 210 c 0
 321 222 310 238 293 238 c 2
 216 238 l 1
 307 147 l 1
 255 95 l 1
 75 275 l 1
EndSplineSet
EndChar

StartChar: uni27DD
Encoding: 198 10205 198
Width: 1680
Flags: W
HStem: 238 74<164 1590>
VStem: 90 74<84 238 312 466>
LayerCount: 2
Back
Fore
SplineSet
164 84 m 1
 90 84 l 1
 90 466 l 1
 164 466 l 1
 164 312 l 1
 1590 312 l 1
 1590 238 l 1
 164 238 l 1
 164 84 l 1
EndSplineSet
EndChar

StartChar: uni27DE
Encoding: 199 10206 199
Width: 1680
Flags: W
HStem: 238 74<90 1516>
VStem: 1516 74<84 238 312 466>
LayerCount: 2
Back
Fore
SplineSet
1516 466 m 1
 1590 466 l 1
 1590 84 l 1
 1516 84 l 1
 1516 238 l 1
 90 238 l 1
 90 312 l 1
 1516 312 l 1
 1516 466 l 1
EndSplineSet
EndChar

StartChar: uni21B0
Encoding: 200 8624 200
Width: 665
Flags: W
HStem: 392 74<216 501>
VStem: 501 74<-70 392>
LayerCount: 2
Back
Fore
SplineSet
75 429 m 1
 255 609 l 1
 307 557 l 1
 216 466 l 1
 575 466 l 1
 575 -70 l 1
 501 -70 l 1
 501 392 l 1
 216 392 l 1
 307 301 l 1
 255 249 l 1
 75 429 l 1
EndSplineSet
EndChar

StartChar: uni21B1
Encoding: 201 8625 201
Width: 665
Flags: W
HStem: 392 74<164 448>
VStem: 90 74<-70 392>
LayerCount: 2
Back
Fore
SplineSet
590 429 m 1
 410 249 l 1
 358 301 l 1
 448 392 l 1
 164 392 l 1
 164 -70 l 1
 90 -70 l 1
 90 466 l 1
 448 466 l 1
 358 557 l 1
 410 609 l 1
 590 429 l 1
EndSplineSet
EndChar

StartChar: uni21B2
Encoding: 202 8626 202
Width: 665
Flags: W
HStem: 84 74<216 501>
VStem: 501 74<158 620>
LayerCount: 2
Back
Fore
SplineSet
75 121 m 1
 255 301 l 1
 307 249 l 1
 216 158 l 1
 501 158 l 1
 501 620 l 1
 575 620 l 1
 575 84 l 1
 216 84 l 1
 307 -7 l 1
 255 -59 l 1
 75 121 l 1
EndSplineSet
EndChar

StartChar: uni21B3
Encoding: 203 8627 203
Width: 665
Flags: W
HStem: 84 74<164 448>
VStem: 90 74<158 620>
LayerCount: 2
Back
Fore
SplineSet
590 121 m 1
 410 -59 l 1
 358 -7 l 1
 448 84 l 1
 90 84 l 1
 90 620 l 1
 164 620 l 1
 164 158 l 1
 448 158 l 1
 358 249 l 1
 410 301 l 1
 590 121 l 1
EndSplineSet
EndChar

StartChar: uni21AC
Encoding: 204 8620 204
Width: 930
Flags: W
HStem: 238 74<225.078 428 502 714> 576 74<224.944 367.056>
VStem: 90 74<372.944 515.056> 428 74<-100 238 312 514.922>
LayerCount: 2
Back
Fore
SplineSet
428 312 m 1
 428 444 l 2
 428 517 369 576 296 576 c 0
 223 576 164 517 164 444 c 0
 164 371 223 312 296 312 c 2
 428 312 l 1
855 275 m 1
 675 95 l 1
 623 147 l 1
 714 238 l 1
 502 238 l 1
 502 -100 l 1
 428 -100 l 1
 428 238 l 1
 296 238 l 2
 182 238 90 330 90 444 c 0
 90 558 182 650 296 650 c 0
 410 650 502 558 502 444 c 2
 502 312 l 1
 714 312 l 1
 623 403 l 1
 675 455 l 1
 855 275 l 1
EndSplineSet
EndChar

StartChar: uni21AB
Encoding: 205 8619 205
Width: 930
Flags: W
HStem: 238 74<216 428 502 704.922> 576 74<562.944 705.056>
VStem: 428 74<-100 238 312 514.922> 766 74<372.944 515.056>
LayerCount: 2
Back
Fore
SplineSet
502 312 m 1
 634 312 l 2
 707 312 766 371 766 444 c 0
 766 517 707 576 634 576 c 0
 561 576 502 517 502 444 c 2
 502 312 l 1
75 275 m 1
 255 455 l 1
 307 403 l 1
 216 312 l 1
 428 312 l 1
 428 444 l 2
 428 558 520 650 634 650 c 0
 748 650 840 558 840 444 c 0
 840 330 748 238 634 238 c 2
 502 238 l 1
 502 -100 l 1
 428 -100 l 1
 428 238 l 1
 216 238 l 1
 307 147 l 1
 255 95 l 1
 75 275 l 1
EndSplineSet
EndChar

StartChar: uni22A2
Encoding: 224 8866 206
Width: 840
Flags: W
HStem: 0 21G<90 164> 317 74<164 750> 687 20G<90 164>
VStem: 90 74<0 317 391 707>
LayerCount: 2
Back
Fore
SplineSet
164 0 m 1
 90 0 l 1
 90 707 l 1
 164 707 l 1
 164 391 l 1
 750 391 l 1
 750 317 l 1
 164 317 l 1
 164 0 l 1
EndSplineSet
EndChar

StartChar: uni22A5
Encoding: 225 8869 207
Width: 840
Flags: W
HStem: 0 74<90 383 457 750> 687 20G<383 457>
VStem: 383 74<74 707>
LayerCount: 2
Back
Fore
SplineSet
750 74 m 1
 750 0 l 1
 90 0 l 1
 90 74 l 1
 383 74 l 1
 383 707 l 1
 457 707 l 1
 457 74 l 1
 750 74 l 1
EndSplineSet
EndChar

StartChar: uni22A3
Encoding: 226 8867 208
Width: 840
Flags: W
HStem: 0 21G<676 750> 317 74<90 676> 687 20G<676 750>
VStem: 676 74<0 317 391 707>
LayerCount: 2
Back
Fore
SplineSet
676 707 m 1
 750 707 l 1
 750 0 l 1
 676 0 l 1
 676 317 l 1
 90 317 l 1
 90 391 l 1
 676 391 l 1
 676 707 l 1
EndSplineSet
EndChar

StartChar: uni22A4
Encoding: 227 8868 209
Width: 840
Flags: W
HStem: 0 21G<383 457> 633 74<90 383 457 750>
VStem: 383 74<0 633>
LayerCount: 2
Back
Fore
SplineSet
90 633 m 1
 90 707 l 1
 750 707 l 1
 750 633 l 1
 457 633 l 1
 457 0 l 1
 383 0 l 1
 383 633 l 1
 90 633 l 1
EndSplineSet
EndChar

StartChar: uni22A6
Encoding: 228 8870 210
Width: 642
Flags: W
HStem: 0 21G<90 164> 317 74<164 552> 687 20G<90 164>
VStem: 90 74<0 317 391 707>
LayerCount: 2
Back
Fore
SplineSet
164 0 m 1
 90 0 l 1
 90 707 l 1
 164 707 l 1
 164 391 l 1
 552 391 l 1
 552 317 l 1
 164 317 l 1
 164 0 l 1
EndSplineSet
EndChar

StartChar: uni2AE0
Encoding: 229 10976 211
Width: 840
Flags: W
HStem: 0 74<90 383 457 750>
VStem: 383 74<74 495>
LayerCount: 2
Back
Fore
SplineSet
750 74 m 1
 750 0 l 1
 90 0 l 1
 90 74 l 1
 383 74 l 1
 383 495 l 1
 457 495 l 1
 457 74 l 1
 750 74 l 1
EndSplineSet
EndChar

StartChar: uni2ADE
Encoding: 230 10974 212
Width: 642
Flags: W
HStem: 0 21G<478 552> 317 74<90 478> 687 20G<478 552>
VStem: 478 74<0 317 391 707>
LayerCount: 2
Back
Fore
SplineSet
478 707 m 1
 552 707 l 1
 552 0 l 1
 478 0 l 1
 478 317 l 1
 90 317 l 1
 90 391 l 1
 478 391 l 1
 478 707 l 1
EndSplineSet
EndChar

StartChar: uni2ADF
Encoding: 231 10975 213
Width: 840
Flags: W
HStem: 0 21G<383 457> 421 74<90 383 457 750>
VStem: 383 74<0 421>
LayerCount: 2
Back
Fore
SplineSet
90 421 m 1
 90 495 l 1
 750 495 l 1
 750 421 l 1
 457 421 l 1
 457 0 l 1
 383 0 l 1
 383 421 l 1
 90 421 l 1
EndSplineSet
EndChar

StartChar: uni22A8
Encoding: 232 8872 214
Width: 840
Flags: W
HStem: 0 21G<90 164> 220 74<164 750> 413 74<164 750> 687 20G<90 164>
VStem: 90 74<0 220 294 413 487 707>
LayerCount: 2
Back
Fore
SplineSet
164 0 m 1
 90 0 l 1
 90 707 l 1
 164 707 l 1
 164 487 l 1
 750 487 l 1
 750 413 l 1
 164 413 l 1
 164 294 l 1
 750 294 l 1
 750 220 l 1
 164 220 l 1
 164 0 l 1
EndSplineSet
EndChar

StartChar: uni2AEB
Encoding: 233 10987 215
Width: 840
Flags: W
HStem: 0 74<90 287 361 479 553 750> 687 20G<287 361 479 553>
VStem: 287 74<74 707> 479 74<74 707>
LayerCount: 2
Back
Fore
SplineSet
750 74 m 1
 750 0 l 1
 90 0 l 1
 90 74 l 1
 287 74 l 1
 287 707 l 1
 361 707 l 1
 361 74 l 1
 479 74 l 1
 479 707 l 1
 553 707 l 1
 553 74 l 1
 750 74 l 1
EndSplineSet
EndChar

StartChar: uni2AE4
Encoding: 234 10980 216
Width: 840
Flags: W
HStem: 0 21G<676 750> 220 74<90 676> 413 74<90 676> 687 20G<676 750>
VStem: 676 74<0 220 294 413 487 707>
LayerCount: 2
Back
Fore
SplineSet
676 707 m 1
 750 707 l 1
 750 0 l 1
 676 0 l 1
 676 220 l 1
 90 220 l 1
 90 294 l 1
 676 294 l 1
 676 413 l 1
 90 413 l 1
 90 487 l 1
 676 487 l 1
 676 707 l 1
EndSplineSet
EndChar

StartChar: uni2AEA
Encoding: 235 10986 217
Width: 840
Flags: W
HStem: 0 21G<287 361 479 553> 633 74<90 287 361 479 553 750>
VStem: 287 74<0 633> 479 74<0 633>
LayerCount: 2
Back
Fore
SplineSet
90 633 m 1
 90 707 l 1
 750 707 l 1
 750 633 l 1
 553 633 l 1
 553 0 l 1
 479 0 l 1
 479 633 l 1
 361 633 l 1
 361 0 l 1
 287 0 l 1
 287 633 l 1
 90 633 l 1
EndSplineSet
EndChar

StartChar: uni22A7
Encoding: 236 8871 218
Width: 642
Flags: W
HStem: 0 21G<90 164> 220 74<164 552> 413 74<164 552> 687 20G<90 164>
VStem: 90 74<0 220 294 413 487 707>
LayerCount: 2
Back
Fore
SplineSet
164 0 m 1
 90 0 l 1
 90 707 l 1
 164 707 l 1
 164 487 l 1
 552 487 l 1
 552 413 l 1
 164 413 l 1
 164 294 l 1
 552 294 l 1
 552 220 l 1
 164 220 l 1
 164 0 l 1
EndSplineSet
EndChar

StartChar: sym07E
Encoding: 237 -1 219
Width: 840
Flags: W
HStem: 0 74<90 287 361 479 553 750>
VStem: 287 74<74 495> 479 74<74 495>
LayerCount: 2
Back
Fore
SplineSet
750 74 m 1
 750 0 l 1
 90 0 l 1
 90 74 l 1
 287 74 l 1
 287 495 l 1
 361 495 l 1
 361 74 l 1
 479 74 l 1
 479 495 l 1
 553 495 l 1
 553 74 l 1
 750 74 l 1
EndSplineSet
EndChar

StartChar: sym07D
Encoding: 238 -1 220
Width: 642
Flags: W
HStem: 0 21G<478 552> 220 74<90 478> 413 74<90 478> 687 20G<478 552>
VStem: 478 74<0 220 294 413 487 707>
LayerCount: 2
Back
Fore
SplineSet
478 707 m 1
 552 707 l 1
 552 0 l 1
 478 0 l 1
 478 220 l 1
 90 220 l 1
 90 294 l 1
 478 294 l 1
 478 413 l 1
 90 413 l 1
 90 487 l 1
 478 487 l 1
 478 707 l 1
EndSplineSet
EndChar

StartChar: sym07F
Encoding: 239 -1 221
Width: 840
Flags: W
HStem: 0 21G<287 361 479 553> 421 74<90 287 361 479 553 750>
VStem: 287 74<0 421> 479 74<0 421>
LayerCount: 2
Back
Fore
SplineSet
90 421 m 1
 90 495 l 1
 750 495 l 1
 750 421 l 1
 553 421 l 1
 553 0 l 1
 479 0 l 1
 479 421 l 1
 361 421 l 1
 361 0 l 1
 287 0 l 1
 287 421 l 1
 90 421 l 1
EndSplineSet
EndChar

StartChar: uni22A9
Encoding: 240 8873 222
Width: 1038
Flags: W
HStem: 0 21G<90 164 288 362> 317 74<362 948> 687 20G<90 164 288 362>
VStem: 90 74<0 707> 288 74<0 317 391 707>
LayerCount: 2
Back
Fore
SplineSet
164 0 m 1
 90 0 l 1
 90 707 l 1
 164 707 l 1
 164 0 l 1
362 0 m 1
 288 0 l 1
 288 707 l 1
 362 707 l 1
 362 391 l 1
 948 391 l 1
 948 317 l 1
 362 317 l 1
 362 0 l 1
EndSplineSet
EndChar

StartChar: uni234A
Encoding: 241 9034 223
Width: 840
Flags: W
HStem: -106 74<90 750> 92 74<90 383 457 750>
VStem: 383 74<166 813>
LayerCount: 2
Back
Fore
SplineSet
750 -32 m 1
 750 -106 l 1
 90 -106 l 1
 90 -32 l 1
 750 -32 l 1
750 166 m 1
 750 92 l 1
 90 92 l 1
 90 166 l 1
 383 166 l 1
 383 813 l 1
 457 813 l 1
 457 166 l 1
 750 166 l 1
EndSplineSet
EndChar

StartChar: uni2AE3
Encoding: 242 10979 224
Width: 1038
Flags: W
HStem: 0 21G<676 750 874 948> 317 74<90 676> 687 20G<676 750 874 948>
VStem: 676 74<0 317 391 707> 874 74<0 707>
LayerCount: 2
Back
Fore
SplineSet
874 707 m 1
 948 707 l 1
 948 0 l 1
 874 0 l 1
 874 707 l 1
676 707 m 1
 750 707 l 1
 750 0 l 1
 676 0 l 1
 676 317 l 1
 90 317 l 1
 90 391 l 1
 676 391 l 1
 676 707 l 1
EndSplineSet
EndChar

StartChar: uni2351
Encoding: 243 9041 225
Width: 840
Flags: W
HStem: 541 74<90 383 457 750> 739 74<90 750>
VStem: 383 74<-106 541>
LayerCount: 2
Back
Fore
SplineSet
90 739 m 1
 90 813 l 1
 750 813 l 1
 750 739 l 1
 90 739 l 1
90 541 m 1
 90 615 l 1
 750 615 l 1
 750 541 l 1
 457 541 l 1
 457 -106 l 1
 383 -106 l 1
 383 541 l 1
 90 541 l 1
EndSplineSet
EndChar

StartChar: uni22A9.alt
Encoding: 244 -1 226
Width: 840
Flags: W
HStem: 0 21G<90 164 288 362> 317 74<362 750> 687 20G<90 164 288 362>
VStem: 90 74<0 707> 288 74<0 317 391 707>
LayerCount: 2
Back
Fore
SplineSet
164 0 m 1
 90 0 l 1
 90 707 l 1
 164 707 l 1
 164 0 l 1
362 0 m 1
 288 0 l 1
 288 707 l 1
 362 707 l 1
 362 391 l 1
 750 391 l 1
 750 317 l 1
 362 317 l 1
 362 0 l 1
EndSplineSet
EndChar

StartChar: uni2AE8
Encoding: 245 10984 227
Width: 840
Flags: W
HStem: 0 74<90 750> 198 74<90 383 457 750> 687 20G<383 457>
VStem: 383 74<272 707>
LayerCount: 2
Back
Fore
SplineSet
750 74 m 1
 750 0 l 1
 90 0 l 1
 90 74 l 1
 750 74 l 1
750 272 m 1
 750 198 l 1
 90 198 l 1
 90 272 l 1
 383 272 l 1
 383 707 l 1
 457 707 l 1
 457 272 l 1
 750 272 l 1
EndSplineSet
EndChar

StartChar: uni2AE3.alt
Encoding: 246 -1 228
Width: 840
Flags: W
HStem: 0 21G<478 552 676 750> 317 74<90 478> 687 20G<478 552 676 750>
VStem: 478 74<0 317 391 707> 676 74<0 707>
LayerCount: 2
Back
Fore
SplineSet
676 707 m 1
 750 707 l 1
 750 0 l 1
 676 0 l 1
 676 707 l 1
478 707 m 1
 552 707 l 1
 552 0 l 1
 478 0 l 1
 478 317 l 1
 90 317 l 1
 90 391 l 1
 478 391 l 1
 478 707 l 1
EndSplineSet
EndChar

StartChar: uni2AE7
Encoding: 247 10983 229
Width: 840
Flags: W
HStem: 0 21G<383 457> 435 74<90 383 457 750> 633 74<90 750>
VStem: 383 74<0 435>
LayerCount: 2
Back
Fore
SplineSet
90 633 m 1
 90 707 l 1
 750 707 l 1
 750 633 l 1
 90 633 l 1
90 435 m 1
 90 509 l 1
 750 509 l 1
 750 435 l 1
 457 435 l 1
 457 0 l 1
 383 0 l 1
 383 435 l 1
 90 435 l 1
EndSplineSet
EndChar

StartChar: uni22AB
Encoding: 248 8875 230
Width: 1038
Flags: W
HStem: 0 21G<90 164 288 362> 220 74<362 948> 413 74<362 948> 687 20G<90 164 288 362>
VStem: 90 74<0 707> 288 74<0 220 294 413 487 707>
LayerCount: 2
Back
Fore
SplineSet
164 0 m 1
 90 0 l 1
 90 707 l 1
 164 707 l 1
 164 0 l 1
362 0 m 1
 288 0 l 1
 288 707 l 1
 362 707 l 1
 362 487 l 1
 948 487 l 1
 948 413 l 1
 362 413 l 1
 362 294 l 1
 948 294 l 1
 948 220 l 1
 362 220 l 1
 362 0 l 1
EndSplineSet
EndChar

StartChar: sym080
Encoding: 249 -1 231
Width: 840
Flags: W
HStem: -106 74<90 750> 92 74<90 287 361 479 553 750>
VStem: 287 74<166 813> 479 74<166 813>
LayerCount: 2
Back
Fore
SplineSet
750 -32 m 1
 750 -106 l 1
 90 -106 l 1
 90 -32 l 1
 750 -32 l 1
750 166 m 1
 750 92 l 1
 90 92 l 1
 90 166 l 1
 287 166 l 1
 287 813 l 1
 361 813 l 1
 361 166 l 1
 479 166 l 1
 479 813 l 1
 553 813 l 1
 553 166 l 1
 750 166 l 1
EndSplineSet
EndChar

StartChar: uni2AE5
Encoding: 250 10981 232
Width: 1038
Flags: W
HStem: 0 21G<676 750 874 948> 220 74<90 676> 413 74<90 676> 687 20G<676 750 874 948>
VStem: 676 74<0 220 294 413 487 707> 874 74<0 707>
LayerCount: 2
Back
Fore
SplineSet
874 707 m 1
 948 707 l 1
 948 0 l 1
 874 0 l 1
 874 707 l 1
676 707 m 1
 750 707 l 1
 750 0 l 1
 676 0 l 1
 676 220 l 1
 90 220 l 1
 90 294 l 1
 676 294 l 1
 676 413 l 1
 90 413 l 1
 90 487 l 1
 676 487 l 1
 676 707 l 1
EndSplineSet
EndChar

StartChar: sym081
Encoding: 251 -1 233
Width: 840
Flags: W
HStem: 541 74<90 287 361 479 553 750> 739 74<90 750>
VStem: 287 74<-106 541> 479 74<-106 541>
LayerCount: 2
Back
Fore
SplineSet
90 739 m 1
 90 813 l 1
 750 813 l 1
 750 739 l 1
 90 739 l 1
90 541 m 1
 90 615 l 1
 750 615 l 1
 750 541 l 1
 553 541 l 1
 553 -106 l 1
 479 -106 l 1
 479 541 l 1
 361 541 l 1
 361 -106 l 1
 287 -106 l 1
 287 541 l 1
 90 541 l 1
EndSplineSet
EndChar

StartChar: uni22AA
Encoding: 252 8874 234
Width: 1038
Flags: W
HStem: 0 21G<90 164 288 362 486 560> 317 74<560 948> 687 20G<90 164 288 362 486 560>
VStem: 90 74<0 707> 288 74<0 707> 486 74<0 317 391 707>
CounterMasks: 1 1c
LayerCount: 2
Back
Fore
SplineSet
164 0 m 1
 90 0 l 1
 90 707 l 1
 164 707 l 1
 164 0 l 1
362 0 m 1
 288 0 l 1
 288 707 l 1
 362 707 l 1
 362 0 l 1
560 0 m 1
 486 0 l 1
 486 707 l 1
 560 707 l 1
 560 391 l 1
 948 391 l 1
 948 317 l 1
 560 317 l 1
 560 0 l 1
EndSplineSet
EndChar

StartChar: sym082
Encoding: 253 -1 235
Width: 1038
Flags: W
HStem: 0 21G<478 552 676 750 874 948> 317 74<90 478> 687 20G<478 552 676 750 874 948>
VStem: 478 74<0 317 391 707> 676 74<0 707> 874 74<0 707>
CounterMasks: 1 1c
LayerCount: 2
Back
Fore
SplineSet
874 707 m 1
 948 707 l 1
 948 0 l 1
 874 0 l 1
 874 707 l 1
676 707 m 1
 750 707 l 1
 750 0 l 1
 676 0 l 1
 676 707 l 1
478 707 m 1
 552 707 l 1
 552 0 l 1
 478 0 l 1
 478 317 l 1
 90 317 l 1
 90 391 l 1
 478 391 l 1
 478 707 l 1
EndSplineSet
EndChar

StartChar: uni2AE2
Encoding: 254 10978 236
Width: 840
Flags: W
HStem: 0 21G<90 164> 124 74<164 750> 317 74<164 750> 509 74<164 750> 687 20G<90 164>
VStem: 90 74<0 124 198 317 391 509 583 707>
LayerCount: 2
Back
Fore
SplineSet
164 0 m 1
 90 0 l 1
 90 707 l 1
 164 707 l 1
 164 583 l 1
 750 583 l 1
 750 509 l 1
 164 509 l 1
 164 391 l 1
 750 391 l 1
 750 317 l 1
 164 317 l 1
 164 198 l 1
 750 198 l 1
 750 124 l 1
 164 124 l 1
 164 0 l 1
EndSplineSet
EndChar

StartChar: sym083
Encoding: 255 -1 237
Width: 840
Flags: W
HStem: 0 21G<676 750> 124 74<90 676> 317 74<90 676> 509 74<90 676> 687 20G<676 750>
VStem: 676 74<0 124 198 317 391 509 583 707>
LayerCount: 2
Back
Fore
SplineSet
676 707 m 1
 750 707 l 1
 750 0 l 1
 676 0 l 1
 676 124 l 1
 90 124 l 1
 90 198 l 1
 676 198 l 1
 676 317 l 1
 90 317 l 1
 90 391 l 1
 676 391 l 1
 676 509 l 1
 90 509 l 1
 90 583 l 1
 676 583 l 1
 676 707 l 1
EndSplineSet
EndChar
